<svg xmlns="http://www.w3.org/2000/svg" xmlns:xlink="http://www.w3.org/1999/xlink" width="16" height="16" enable-background="new" version="1.0"><defs><linearGradient id="linearGradient4256" x1="417" x2="431" y1="148" y2="148" gradientTransform="matrix(0,-1,1,0,-140,432)" gradientUnits="userSpaceOnUse"><stop offset="0" stop-color="#87039b"/><stop offset="1" stop-color="#ca49de"/></linearGradient></defs><metadata/><path d="m3 0c-1.662 0-3 1.338-3 3v10c0 1.662 1.338 3 3 3h10c1.662 0 3-1.338 3-3v-10c0-1.662-1.338-3-3-3z" color="#bebebe" enable-background="accumulate" opacity=".1"/><path fill="url(#linearGradient4256)" d="m3 0.5c-1.38 0-2.5 1.12-2.5 2.5v10c0 1.38 1.12 2.5 2.5 2.5h10c1.38 0 2.5-1.12 2.5-2.5v-10c0-1.38-1.12-2.5-2.5-2.5h-10z" color="#bebebe" enable-background="accumulate"/><path d="m8 3.72c-2.365 0-5 0.79862-5 1.9444s2.635 1.9444 5 1.9444 5-0.7986 5-1.9444-2.635-1.9444-5-1.9444zm-5 3.0382v1.1285c0 1.1458 2.635 1.9444 5 1.9444s5-0.79862 5-1.9444v-1.1285c-0.889 0.8361-2.767 1.4062-5 1.4062-2.2333 0-4.1109-0.5702-5-1.4062zm0 2.2222v1.1285c0 1.1458 2.635 1.9444 5 1.9444s5-0.79861 5-1.9444v-1.1285c-0.8891 0.83607-2.7667 1.4062-5 1.4062s-4.1109-0.57018-5-1.4062zm0 2.2222v1.1285c0 1.1458 2.635 1.9444 5 1.9444s5-0.79861 5-1.9444v-1.1285c-0.8891 0.83608-2.7667 1.4062-5 1.4062s-4.1109-0.57017-5-1.4062z" color="#000" enable-background="new" opacity=".2"/><path fill="#fff" d="m8 2.72c-2.365 0-5 0.79862-5 1.9444s2.635 1.9444 5 1.9444 5-0.7986 5-1.9444-2.635-1.9444-5-1.9444zm-5 3.0382v1.1285c0 1.1458 2.635 1.9444 5 1.9444s5-0.79862 5-1.9444v-1.1285c-0.889 0.8361-2.767 1.4062-5 1.4062-2.2333 0-4.1109-0.5702-5-1.4062zm0 2.2222v1.1285c0 1.1458 2.635 1.9444 5 1.9444s5-0.79861 5-1.9444v-1.1285c-0.889 0.8361-2.767 1.4062-5 1.4062-2.2333 0-4.1109-0.5702-5-1.4062zm0 2.2222v1.1285c0 1.1458 2.635 1.9444 5 1.9444s5-0.79861 5-1.9444v-1.1285c-0.8891 0.83608-2.7667 1.4062-5 1.4062s-4.1109-0.57017-5-1.4062z" color="#000" enable-background="new"/><path fill="#fff" d="m3 1c-1.1253 0-2 0.8747-2 2v1c0-1.1253 0.8747-2 2-2h10c1.1253 0 2 0.8747 2 2v-1c0-1.1253-0.875-2-2-2h-10z" color="#bebebe" enable-background="accumulate" opacity=".13"/><path d="m13 16c1.1253 0 2-0.8747 2-2v-1c0 1.1253-0.8747 2-2 2h-10c-1.1253 0-2-0.875-2-2v1c0 1.1253 0.8747 2 2 2h10z" color="#bebebe" enable-background="accumulate" opacity=".3"/><path fill="#fff" d="m3 14.5c-1.1253 0-2-0.8747-2-2v-1c0 1.1253 0.8747 2 2 2h10c1.1253 0 2-0.8747 2-2v1c0 1.1253-0.8747 2-2 2h-10z" color="#bebebe" enable-background="accumulate" opacity=".1"/><path d="m3 0c-1.662 0-3 1.338-3 3v10c0 1.662 1.338 3 3 3h10c1.662 0 3-1.338 3-3v-10c0-1.662-1.338-3-3-3h-10zm0 1h10c1.1253 0 2 0.8747 2 2v10c0 1.1253-0.8747 2-2 2h-10c-1.1253 0-2-0.875-2-2v-10c0-1.1253 0.8747-2 2-2z" color="#bebebe" enable-background="accumulate" opacity=".41"/></svg>