<svg xmlns="http://www.w3.org/2000/svg" xmlns:xlink="http://www.w3.org/1999/xlink" width="16" height="16" enable-background="new" version="1.0"><defs><linearGradient id="linearGradient4256" x1="417" x2="431" y1="148" y2="148" gradientTransform="matrix(0,-1,1,0,-140,432)" gradientUnits="userSpaceOnUse"><stop offset="0" stop-color="#9c3b03"/><stop offset="1" stop-color="#db6d2e"/></linearGradient></defs><metadata/><path d="m3 0c-1.662 0-3 1.338-3 3v10c0 1.662 1.338 3 3 3h10c1.662 0 3-1.338 3-3v-10c0-1.662-1.338-3-3-3z" color="#bebebe" enable-background="accumulate" opacity=".1"/><path fill="url(#linearGradient4256)" d="m3 0.5c-1.38 0-2.5 1.12-2.5 2.5v10c0 1.38 1.12 2.5 2.5 2.5h10c1.38 0 2.5-1.12 2.5-2.5v-10c0-1.38-1.12-2.5-2.5-2.5h-10z" color="#bebebe" enable-background="accumulate"/><path d="m3 4v7h2v2h8v-7h-2v-2zm1 1h6v1 1 3h-4-1-1zm7 2h1v5h-6v-1h5z" color="#000" enable-background="new" opacity=".2"/><path fill="#fff" d="m3 3v7h2v2h8v-7h-2v-2zm1 1h6v1 1 3h-4-1-1zm7 2h1v5h-6v-1h5z" color="#000" enable-background="new"/><path fill="#fff" d="m3 1c-1.1253 0-2 0.8747-2 2v1c0-1.1253 0.8747-2 2-2h10c1.1253 0 2 0.8747 2 2v-1c0-1.1253-0.875-2-2-2h-10z" color="#bebebe" enable-background="accumulate" opacity=".13"/><path d="m13 16c1.1253 0 2-0.8747 2-2v-1c0 1.1253-0.8747 2-2 2h-10c-1.1253 0-2-0.875-2-2v1c0 1.1253 0.8747 2 2 2h10z" color="#bebebe" enable-background="accumulate" opacity=".3"/><path fill="#fff" d="m3 14.5c-1.1253 0-2-0.8747-2-2v-1c0 1.1253 0.8747 2 2 2h10c1.1253 0 2-0.8747 2-2v1c0 1.1253-0.8747 2-2 2h-10z" color="#bebebe" enable-background="accumulate" opacity=".1"/><path d="m3 0c-1.662 0-3 1.338-3 3v10c0 1.662 1.338 3 3 3h10c1.662 0 3-1.338 3-3v-10c0-1.662-1.338-3-3-3h-10zm0 1h10c1.1253 0 2 0.8747 2 2v10c0 1.1253-0.8747 2-2 2h-10c-1.1253 0-2-0.875-2-2v-10c0-1.1253 0.8747-2 2-2z" color="#bebebe" enable-background="accumulate" opacity=".41"/></svg>