<svg xmlns="http://www.w3.org/2000/svg" xmlns:xlink="http://www.w3.org/1999/xlink" width="16" height="16" enable-background="new" version="1.0"><defs><linearGradient id="linearGradient4256" x1="417" x2="431" y1="148" y2="148" gradientTransform="matrix(0,-1,1,0,-140,432)" gradientUnits="userSpaceOnUse"><stop offset="0" stop-color="#c29600"/><stop offset="1" stop-color="#ecc53f"/></linearGradient></defs><metadata/><path d="m3 0c-1.662 0-3 1.338-3 3v10c0 1.662 1.338 3 3 3h10c1.662 0 3-1.338 3-3v-10c0-1.662-1.338-3-3-3z" color="#bebebe" enable-background="accumulate" opacity=".1"/><path fill="url(#linearGradient4256)" d="m3 0.5c-1.38 0-2.5 1.12-2.5 2.5v10c0 1.38 1.12 2.5 2.5 2.5h10c1.38 0 2.5-1.12 2.5-2.5v-10c0-1.38-1.12-2.5-2.5-2.5h-10z" color="#bebebe" enable-background="accumulate"/><path d="m12 7h-2.0312c-0.2401-1.699-1.7035-3-3.4688-3-1.933 0-3.5 1.567-3.5 3.5 0 1.4002 0.81317 2.5713 2 3.125l-1.4062 2.0938-0.4375 0.65625 0.78125 0.125 7 1 0.875 0.125-0.34375-0.8125-0.35-0.81h1.875v-6zm-5.5-2c1.2081 0 2.2044 0.8608 2.4375 2h-0.375l-0.0937-0.1875-0.375-0.8437-0.5 0.75-0.19 0.28h-0.41v0.625l-1.4688 2.1875c-0.9-0.38-1.53-1.27-1.53-2.31 0-1.3807 1.1193-2.5 2.5-2.5zm2.4688 3h1 2.0312v4h-1.3125zm-1.0625 0.0312 0.0937 0.2188l1.5938 3.75 0.28125 0.625 0.15625 0.375 0.15625 0.375-2.69-0.38-0.5-0.0625-2.1562-0.3125 1.125-1.6875 0.62-0.94 0.41-0.62z" enable-background="new" opacity=".2"/><path fill="#fff" d="m12 6h-2.0312c-0.2401-1.699-1.7035-3-3.4688-3-1.933 0-3.5 1.567-3.5 3.5 0 1.4002 0.8132 2.5713 2 3.125l-1.4062 2.0938-0.4375 0.65625 0.78125 0.125 7 1 0.875 0.125-0.34375-0.8125-0.35-0.81h1.875v-6zm-5.5-2c1.2081 0 2.2044 0.8608 2.4375 2h-0.375l-0.0937-0.1875-0.375-0.8437-0.5 0.75-0.19 0.28h-0.41v0.625l-1.4688 2.1875c-0.9-0.38-1.53-1.27-1.53-2.31 0-1.3807 1.1193-2.5 2.5-2.5zm2.4688 3h1 2.0312v4h-1.3125zm-1.0625 0.0312 0.0937 0.2188l1.5938 3.75 0.28125 0.625 0.15625 0.375 0.15625 0.375-2.69-0.38-0.5-0.0625-2.1562-0.3125 1.125-1.6875 0.62-0.94 0.41-0.62z" enable-background="new"/><path fill="#fff" d="m3 1c-1.1253 0-2 0.8747-2 2v1c0-1.1253 0.8747-2 2-2h10c1.1253 0 2 0.8747 2 2v-1c0-1.1253-0.875-2-2-2h-10z" color="#bebebe" enable-background="accumulate" opacity=".13"/><path d="m13 16c1.1253 0 2-0.8747 2-2v-1c0 1.1253-0.8747 2-2 2h-10c-1.1253 0-2-0.875-2-2v1c0 1.1253 0.8747 2 2 2h10z" color="#bebebe" enable-background="accumulate" opacity=".3"/><path fill="#fff" d="m3 14.5c-1.1253 0-2-0.8747-2-2v-1c0 1.1253 0.8747 2 2 2h10c1.1253 0 2-0.8747 2-2v1c0 1.1253-0.8747 2-2 2h-10z" color="#bebebe" enable-background="accumulate" opacity=".1"/><path d="m3 0c-1.662 0-3 1.338-3 3v10c0 1.662 1.338 3 3 3h10c1.662 0 3-1.338 3-3v-10c0-1.662-1.338-3-3-3h-10zm0 1h10c1.1253 0 2 0.8747 2 2v10c0 1.1253-0.8747 2-2 2h-10c-1.1253 0-2-0.875-2-2v-10c0-1.1253 0.8747-2 2-2z" color="#bebebe" enable-background="accumulate" opacity=".41"/></svg>