<svg xmlns="http://www.w3.org/2000/svg" xmlns:xlink="http://www.w3.org/1999/xlink" width="16" height="16" enable-background="new" version="1.0"><defs><linearGradient id="linearGradient4256" x1="417" x2="431" y1="148" y2="148" gradientTransform="matrix(0,-1,1,0,-140,432)" gradientUnits="userSpaceOnUse"><stop offset="0" stop-color="#5f5f5f"/><stop offset="1" stop-color="#878787"/></linearGradient></defs><metadata/><path d="m3 0c-1.662 0-3 1.338-3 3v10c0 1.662 1.338 3 3 3h10c1.662 0 3-1.338 3-3v-10c0-1.662-1.338-3-3-3z" color="#bebebe" enable-background="accumulate" opacity=".1"/><path fill="url(#linearGradient4256)" d="m3 0.5c-1.38 0-2.5 1.12-2.5 2.5v10c0 1.38 1.12 2.5 2.5 2.5h10c1.38 0 2.5-1.12 2.5-2.5v-10c0-1.38-1.12-2.5-2.5-2.5h-10z" color="#bebebe" enable-background="accumulate"/><path style="block-progression:tb;text-transform:none;text-indent:0" d="m6 4-0.5 0.375-1.5938 6.313-0.4375-1.3443-0.9375 0.3125l1 3 0.97-0.04 1.91-7.62h6.59v-1h-7zm2.4375 1.75-0.875 0.5 1.8438 3.25-1.8438 3.25 0.875 0.5l1.5625-2.75 1.5625 2.75 0.875-0.5-1.844-3.25 1.844-3.25-0.876-0.5-1.562 2.75-1.5625-2.75z" color="#000" enable-background="accumulate" opacity=".2"/><path fill="#fff" d="m6 3-0.5 0.375-1.5938 6.3125-0.4375-1.3438-0.9375 0.3125l1 3 0.97-0.04 1.91-7.62h6.59v-1h-7zm2.4375 1.75-0.875 0.5 1.8438 3.25-1.8438 3.25 0.875 0.5l1.5625-2.75 1.5625 2.75 0.875-0.5-1.844-3.25 1.844-3.25-0.876-0.5-1.562 2.75-1.5625-2.75z" color="#000" enable-background="accumulate" style="block-progression:tb;text-transform:none;text-indent:0"/><path fill="#fff" d="m3 1c-1.1253 0-2 0.8747-2 2v1c0-1.1253 0.8747-2 2-2h10c1.1253 0 2 0.8747 2 2v-1c0-1.1253-0.875-2-2-2h-10z" color="#bebebe" enable-background="accumulate" opacity=".13"/><path d="m13 16c1.1253 0 2-0.8747 2-2v-1c0 1.1253-0.8747 2-2 2h-10c-1.1253 0-2-0.875-2-2v1c0 1.1253 0.8747 2 2 2h10z" color="#bebebe" enable-background="accumulate" opacity=".3"/><path fill="#fff" d="m3 14.5c-1.1253 0-2-0.8747-2-2v-1c0 1.1253 0.8747 2 2 2h10c1.1253 0 2-0.8747 2-2v1c0 1.1253-0.8747 2-2 2h-10z" color="#bebebe" enable-background="accumulate" opacity=".1"/><path d="m3 0c-1.662 0-3 1.338-3 3v10c0 1.662 1.338 3 3 3h10c1.662 0 3-1.338 3-3v-10c0-1.662-1.338-3-3-3h-10zm0 1h10c1.1253 0 2 0.8747 2 2v10c0 1.1253-0.8747 2-2 2h-10c-1.1253 0-2-0.875-2-2v-10c0-1.1253 0.8747-2 2-2z" color="#bebebe" enable-background="accumulate" opacity=".41"/></svg>