<svg xmlns="http://www.w3.org/2000/svg" xmlns:xlink="http://www.w3.org/1999/xlink" width="16" height="16" enable-background="new" version="1.0"><defs><linearGradient id="linearGradient4256" x1="417" x2="431" y1="148" y2="148" gradientTransform="matrix(0,-1,1,0,-140,432)" gradientUnits="userSpaceOnUse"><stop offset="0" stop-color="#179e03"/><stop offset="1" stop-color="#45d630"/></linearGradient></defs><metadata/><g display="none" transform="translate(-416,-140)"><text id="context" x="15.007" y="19.745" fill="#000" display="inline" enable-background="new" font-family="'DejaVu Sans'" font-size="18" xml:space="preserve"><tspan x="15.007" y="19.745" font-family="'DejaVu Sans'">apps</tspan></text><text id="icon-name" x="122.488" y="19.745" fill="#000" display="inline" enable-background="new" font-family="'DejaVu Sans'" font-size="18" font-weight="bold" line-height="125%" xml:space="preserve"><tspan x="122.488" y="19.745" font-family="'DejaVu Sans'" font-size="18" font-weight="bold">libreoffice-calc</tspan></text><rect width="16" height="16" x="416" y="140" fill="#eeeeec" display="inline" enable-background="accumulate"/><rect width="24" height="24" x="416" y="100" fill="#d4d4d4" display="inline" enable-background="accumulate"/><g fill="#eeeeec"><rect width="32" height="32" x="416" y="52" display="inline" enable-background="accumulate"/><rect width="22" height="22" x="417" y="101" display="inline" enable-background="accumulate"/><rect width="48" height="48" x="288" y="220" display="inline" enable-background="accumulate"/><rect width="256" height="256" x="16" y="28" display="inline" enable-background="accumulate"/><rect width="64" height="64" x="288" y="140" display="inline" enable-background="accumulate"/><rect width="96" height="96" x="288" y="28" display="inline" enable-background="accumulate"/></g></g><path d="m3 0c-1.662 0-3 1.338-3 3v10c0 1.662 1.338 3 3 3h10c1.662 0 3-1.338 3-3v-10c0-1.662-1.338-3-3-3z" color="#bebebe" enable-background="accumulate" opacity=".1"/><path fill="url(#linearGradient4256)" d="m3 0.5c-1.38 0-2.5 1.12-2.5 2.5v10c0 1.38 1.12 2.5 2.5 2.5h10c1.38 0 2.5-1.12 2.5-2.5v-10c0-1.38-1.12-2.5-2.5-2.5h-10z" color="#bebebe" enable-background="accumulate"/><path d="m3 5v7h10v-7zm1 1h2v2h-2zm3 0h2v2h-2zm3 0h2v2h-2zm-6 3h2v2h-2zm3 0h2v2h-2zm3 0h2v2h-2z" color="#000" enable-background="new" opacity=".2"/><path fill="#fff" d="m3 4v7h10v-7zm1 1h2v2h-2zm3 0h2v2h-2zm3 0h2v2h-2zm-6 3h2v2h-2zm3 0h2v2h-2zm3 0h2v2h-2z" color="#000" enable-background="new"/><path fill="#fff" d="m3 1c-1.1253 0-2 0.8747-2 2v1c0-1.1253 0.8747-2 2-2h10c1.1253 0 2 0.8747 2 2v-1c0-1.1253-0.875-2-2-2h-10z" color="#bebebe" enable-background="accumulate" opacity=".13"/><path d="m13 16c1.1253 0 2-0.8747 2-2v-1c0 1.1253-0.8747 2-2 2h-10c-1.1253 0-2-0.875-2-2v1c0 1.1253 0.8747 2 2 2h10z" color="#bebebe" enable-background="accumulate" opacity=".3"/><path fill="#fff" d="m3 14.5c-1.1253 0-2-0.8747-2-2v-1c0 1.1253 0.8747 2 2 2h10c1.1253 0 2-0.8747 2-2v1c0 1.1253-0.8747 2-2 2h-10z" color="#bebebe" enable-background="accumulate" opacity=".1"/><path d="m3 0c-1.662 0-3 1.338-3 3v10c0 1.662 1.338 3 3 3h10c1.662 0 3-1.338 3-3v-10c0-1.662-1.338-3-3-3h-10zm0 1h10c1.1253 0 2 0.8747 2 2v10c0 1.1253-0.8747 2-2 2h-10c-1.1253 0-2-0.875-2-2v-10c0-1.1253 0.8747-2 2-2z" color="#bebebe" enable-background="accumulate" opacity=".41"/></svg>