<?xml version="1.0" encoding="UTF-8" standalone="no"?>
<!-- Created with Inkscape (http://www.inkscape.org/) -->

<svg
   xmlns:dc="http://purl.org/dc/elements/1.1/"
   xmlns:cc="http://creativecommons.org/ns#"
   xmlns:rdf="http://www.w3.org/1999/02/22-rdf-syntax-ns#"
   xmlns:svg="http://www.w3.org/2000/svg"
   xmlns="http://www.w3.org/2000/svg"
   xmlns:sodipodi="http://sodipodi.sourceforge.net/DTD/sodipodi-0.dtd"
   xmlns:inkscape="http://www.inkscape.org/namespaces/inkscape"
   id="svg2"
   version="1.1"
   inkscape:version="0.91 r13725"
   width="202.2"
   height="202.2"
   viewBox="0 0 202.2 202.2"
   sodipodi:docname="distro-icon-inverted.svg">
  <metadata
     id="metadata8">
    <rdf:RDF>
      <cc:Work
         rdf:about="">
        <dc:format>image/svg+xml</dc:format>
        <dc:type
           rdf:resource="http://purl.org/dc/dcmitype/StillImage" />
        <dc:title></dc:title>
      </cc:Work>
    </rdf:RDF>
  </metadata>
  <defs
     id="defs6" />
  <sodipodi:namedview
     pagecolor="#ffffff"
     bordercolor="#666666"
     borderopacity="1"
     objecttolerance="10"
     gridtolerance="10"
     guidetolerance="10"
     inkscape:pageopacity="0"
     inkscape:pageshadow="2"
     inkscape:window-width="714"
     inkscape:window-height="480"
     id="namedview4"
     showgrid="false"
     inkscape:zoom="1.1671612"
     inkscape:cx="101.1"
     inkscape:cy="101.1"
     inkscape:window-x="0"
     inkscape:window-y="0"
     inkscape:window-maximized="0"
     inkscape:current-layer="svg2" />
  <g
     id="g4138">
    <path
       style="fill:#fefefe"
       d="m 82.05,163.27443 c -2.31,-0.0514 -9.87,-0.19039 -16.8,-0.30892 L 52.65,162.75 52.548276,162.03028 c -0.08272,-0.58522 0.750972,-1.57374 4.461291,-5.28986 l 4.563015,-4.57015 -1.611291,-0.61392 c -1.554084,-0.59213 -6.865482,-2.75643 -16.311291,-6.64657 -2.475,-1.0193 -5.410155,-2.19622 -6.522564,-2.61538 l -2.022564,-0.76211 -0.8862,-2.89115 c -0.487413,-1.59012 -1.106403,-3.76864 -1.375539,-4.84114 -0.269133,-1.0725 -0.882045,-3.3 -1.362021,-4.95 -0.479976,-1.65 -0.991116,-3.6075 -1.135866,-4.35 -0.14475,-0.7425 -0.698673,-2.9025 -1.230941,-4.8 -0.532268,-1.8975 -1.428233,-5.08876 -1.991033,-7.09169 -0.5628,-2.00294 -1.021564,-3.82544 -1.019478,-4.05 0.0021,-0.22457 -0.330385,-1.55581 -0.738826,-2.95831 C 24.956526,104.1975 22.50101,95.5575 19.908266,86.4 17.315523,77.2425 15.095545,69.634299 14.974982,69.492888 14.85442,69.351477 12.505175,69.722727 9.7544382,70.317888 7.0037016,70.913049 4.2236514,71.4 3.5765493,71.4 2.4638949,71.4 2.4,71.350098 2.4,70.4811 2.4,69.975708 2.8000568,68.119458 3.2890149,66.3561 4.0907814,63.464649 4.6511892,61.299405 6.1764321,55.2 6.4446258,54.1275 7.1221443,51.558558 7.6820286,49.491237 8.2419129,47.423919 8.7,45.460773 8.7,45.128694 c 0,-0.566298 1.1780208,-0.794511 18.975,-3.67593 10.43625,-1.689684 19.515,-3.067458 20.175,-3.061722 1.042452,0.0091 1.714971,0.394356 5.12238,2.934693 2.157309,1.608345 5.464809,4.068576 7.35,5.467179 1.885191,1.398603 3.56262,2.653161 3.72762,2.787912 0.463848,0.378804 6.818016,5.093832 12.019857,8.919174 2.580288,1.8975 4.846395,3.585 5.035788,3.75 0.407742,0.355224 2.573322,1.973754 6.494355,4.853814 3.752808,2.756493 8.224491,5.744307 9.089205,6.073071 0.380238,0.144567 5.848335,3.316905 12.151325,7.04964 l 11.45998,6.786792 17.5182,-12.306657 c 24.21601,-17.01192 24.10684,-17.077545 7.04707,4.23609 -6.61882,8.269227 -11.85007,14.921664 -11.625,14.783196 0.22507,-0.138468 8.79822,-6.095952 19.05143,-13.238853 C 165.26132,71.452164 171.17264,67.5 171.71721,67.5 c 1.91509,0 1.23553,0.987396 -12.74325,18.515796 -11.02712,13.827237 -13.45194,17.028364 -13.125,17.326934 0.22057,0.20144 12.44979,7.62079 27.17604,16.48745 24.91599,15.0019 26.775,16.17749 26.775,16.9318 l 0,0.81058 -17.625,0.97446 c -9.69375,0.53595 -18.43368,0.96963 -19.42206,0.96372 l -1.79706,-0.0107 -15.22763,-8.7 c -8.37519,-4.785 -15.39652,-8.69694 -15.60294,-8.69321 -0.20642,0.004 -9.28531,2.95706 -20.17531,6.56294 l -19.8,6.55615 -0.07294,13.61206 c -0.0721,13.45512 -0.08026,13.61811 -0.708237,14.13706 -0.419325,0.34652 -1.057434,0.50254 -1.877058,0.45892 C 86.808795,163.39758 84.36,163.32581 82.05,163.27443 Z"
       id="path4182"
       inkscape:connector-curvature="0" />
    <path
       style="fill:#fdfdfd"
       d="m 74.55,162.88387 c -2.97,-0.11494 -8.85972,-0.22583 -13.088268,-0.24643 -6.392097,-0.0311 -7.750437,-0.11235 -8.05704,-0.48179 -0.308481,-0.37169 0.372201,-1.21391 4.163268,-5.15129 2.492622,-2.58882 4.53204,-4.8042 4.53204,-4.92308 0,-0.11887 -0.57375,-0.44465 -1.275,-0.72395 C 40.57005,143.29012 36.221916,141.45972 35.806266,140.82535 34.872339,139.4 34.089297,134.4 34.8,134.4 c 0.165,0 0.3,0.19453 0.3,0.43229 0,0.73146 0.553689,0.83036 2.031741,0.36291 0.780042,-0.2467 2.160759,-0.52725 3.068259,-0.62345 4.252749,-0.4508 34.120263,-4.08357 34.65,-4.21446 0.33,-0.0815 1.41,-0.76276 2.4,-1.51384 0.99,-0.75108 2.341173,-1.63828 3.002604,-1.97155 0.661431,-0.33327 2.416431,-1.47455 3.9,-2.53618 1.483569,-1.06164 2.866146,-1.93148 3.072396,-1.93298 0.20625,-10e-4 0.375,-0.12236 0.375,-0.26856 0,-0.1462 0.50625,-0.50458 1.125,-0.7964 0.61875,-0.29183 1.798197,-0.98221 2.620995,-1.53418 0.822798,-0.55198 1.582101,-1.0036 1.687338,-1.0036 0.10524,0 1.99704,-1.12368 4.204005,-2.49707 2.206965,-1.37339 4.251592,-2.58518 4.543632,-2.69287 0.29203,-0.1077 1.30453,-0.71906 2.25,-1.3586 1.42796,-0.9659 5.16205,-3.23451 6.96903,-4.23395 0.76514,-0.4232 10.72035,-6.73193 15.2321,-9.652757 2.35516,-1.524684 4.23765,-2.905497 4.18333,-3.068472 -0.0543,-0.162978 -2.49102,-1.590063 -5.41487,-3.171303 -4.8389,-2.616915 -5.30866,-2.941602 -5.23332,-3.617211 0.11657,-1.045443 3.20798,-2.654703 4.20845,-2.190741 1.22182,0.566616 7.72431,6.421254 7.72431,6.954735 0,0.28602 0.3375,0.813489 0.75,1.172154 0.4125,0.358665 0.75,0.847224 0.75,1.085691 0,0.238467 -2.53125,2.213898 -5.625,4.389846 -15.08053,10.606698 -19.30629,13.615358 -20.14312,14.341498 l -0.90931,0.78905 3.77722,5.35316 c 3.6613,5.18888 3.75992,5.36924 3.21371,5.87682 -0.62692,0.58259 -4.34815,1.97734 -15.760756,5.90729 l -7.697259,2.65056 -0.177969,4.20608 c -0.09788,2.31335 -0.230961,8.45243 -0.295734,13.64241 -0.144228,11.55693 0.395526,10.53782 -5.540016,10.46011 C 81.791295,163.11696 77.52,162.99881 74.55,162.88387 Z M 162,139.22528 c -0.4125,-0.1294 -7.5,-4.08113 -15.75,-8.78163 -8.25,-4.70049 -15.40335,-8.73802 -15.89633,-8.97228 -0.49299,-0.23427 -0.93998,-0.65259 -0.99333,-0.92961 -0.11836,-0.61459 12.81163,-16.76482 13.87967,-17.33641 0.68586,-0.36706 0.97534,-0.25409 3.97486,1.5512 1.77932,1.0709 11.47013,6.91715 21.53513,12.99167 10.065,6.07451 20.97579,12.65752 24.24621,14.62891 5.69267,3.4315 6.60784,4.14915 6.01862,4.7196 -0.14566,0.14102 -2.15483,0.33795 -4.46483,0.43762 -2.31,0.0997 -5.2125,0.23738 -6.45,0.306 -1.2375,0.0686 -3.6,0.1953 -5.25,0.28149 -1.65,0.0862 -4.215,0.23435 -5.7,0.32923 -1.485,0.0949 -3.8475,0.22761 -5.25,0.29493 -5.88684,0.28257 -7.69029,0.40145 -8.4,0.55368 -0.4125,0.0885 -1.0875,0.055 -1.5,-0.0744 z M 34.125,133.92691 c -0.12375,-0.1248 -0.220896,-0.57566 -0.215877,-1.00191 0.008,-0.67993 0.04728,-0.70944 0.320181,-0.24057 0.34164,0.58696 0.256098,1.60595 -0.104304,1.24248 z M 31.823685,124.925 c 0.0144,-0.34948 0.08548,-0.42057 0.181248,-0.18125 0.08666,0.21656 0.07601,0.47531 -0.02367,0.575 -0.09969,0.0997 -0.170592,-0.0775 -0.157566,-0.39375 z m -6.82924,-22.7 C 24.840983,102.01875 24.075248,99.4875 23.292812,96.6 22.510376,93.7125 20.424013,86.289522 18.65645,80.104497 L 15.442698,68.858991 14.318036,68.676183 c -1.277794,-0.207699 -1.713512,-0.508158 -1.198502,-0.826452 0.26028,-0.160863 0.171059,-0.841467 -0.341971,-2.608689 C 11.113694,59.509569 10.180871,56.108781 9.73533,54.15 9.0576795,51.170766 8.9924241,51.02463 8.663643,51.75 8.4495243,52.222398 8.4237687,52.158597 8.5425384,51.45 8.7399687,50.272101 9.0360573,47.517555 9.1035915,46.230462 9.1330155,45.669714 9.3579924,45.099726 9.6035433,44.96382 9.8490945,44.827914 15.18,43.893372 21.45,42.887064 27.72,41.880756 36.046275,40.526994 39.952836,39.878706 43.859394,39.230418 47.339901,38.7 47.687298,38.7 c 0.347394,0 2.416119,1.325316 4.597164,2.945148 C 54.465507,43.26498 59.49,47.002077 63.45,49.949811 75.364578,58.81875 83.057271,64.540155 86.7,67.241889 c 1.8975,1.407336 4.638738,3.272319 6.091641,4.144407 2.276889,1.366674 3.862725,2.796537 3.473997,3.132315 -0.0636,0.05494 -1.512474,0.592635 -3.21972,1.194882 -1.707243,0.602247 -6.972243,2.659566 -11.7,4.571817 C 76.618164,82.197564 69.9825,84.882384 66.6,86.251575 38.216979,97.74066 26.059376,102.6 25.697818,102.6 c -0.233393,0 -0.549911,-0.16875 -0.703373,-0.375 z"
       id="path4180"
       inkscape:connector-curvature="0" />
    <path
       style="fill:#fcfcfc"
       d="m 85.8,163.00414 c -0.7425,-0.0435 -8.235,-0.22731 -16.65,-0.40843 -8.415,-0.18113 -15.420162,-0.44867 -15.567027,-0.59455 -0.155418,-0.15436 1.474668,-2.10103 3.9,-4.65742 4.368819,-4.60491 4.754079,-5.07928 4.482264,-5.51909 -0.09198,-0.14882 -5.851869,-2.5318 -12.799758,-5.29549 -11.374995,-4.52469 -12.689226,-5.11719 -13.202154,-5.95203 -0.754761,-1.22844 -0.614808,-1.73678 0.562134,-2.04176 C 37.38678,138.31218 37.5,138.16308 37.5,137.25198 c 0,-1.23325 0.413664,-1.50381 2.7,-1.76595 12.843321,-1.47255 34.241949,-4.15663 34.881852,-4.37532 0.457521,-0.15635 1.807521,-0.93869 3,-1.73852 6.5538,-4.39582 10.963089,-7.27219 11.147811,-7.27219 0.203637,0 5.81739,-3.35137 12.170337,-7.2656 1.7325,-1.06745 4.905,-3.0188 7.05,-4.33635 2.145,-1.31755 5.925,-3.67125 8.4,-5.23046 5.56641,-3.50673 7.95,-4.85526 7.95,-4.49777 0,0.15122 -0.39134,0.52363 -0.86964,0.82757 -0.4783,0.30393 -1.86205,1.30247 -3.075,2.21896 -1.21295,0.91649 -4.83786,3.53784 -8.05536,5.82523 -3.2175,2.28738 -6.57028,4.87877 -7.45061,5.75865 -0.88034,0.87987 -1.72072,1.59977 -1.86753,1.59977 -0.1468,0 1.26737,2.19375 3.1426,4.875 2.52631,3.61217 3.34383,4.9994 3.15593,5.35523 -0.29476,0.55821 -3.26632,1.72638 -12.43039,4.8866 -3.63,1.2518 -6.791904,2.38689 -7.02645,2.52242 -0.584187,0.33758 -0.571944,0.11755 -0.808509,14.53241 -0.18339,11.17478 -0.271728,12.87533 -0.687729,13.23952 -0.620583,0.54328 -1.370022,0.69007 -3.027312,0.59296 z m 76.08232,-24.00407 c -1.12526,-0.31815 -32.08899,-18.00398 -32.23086,-18.40959 -0.12984,-0.37119 0.80263,-1.68462 3.40098,-4.79048 1.17333,-1.4025 3.80657,-4.6425 5.85165,-7.2 3.92147,-4.90404 4.36786,-5.37517 5.1074,-5.39046 0.25383,-0.005 1.80633,0.81862 3.45,1.83082 1.64368,1.0122 6.63351,4.03276 11.08851,6.71235 4.455,2.6796 12.6225,7.6053 18.15,10.94601 5.5275,3.34071 12.4125,7.48675 15.3,9.21343 5.9488,3.55728 7.36008,4.54777 6.99707,4.91078 -0.22166,0.22166 -2.17717,0.36722 -9.84707,0.73297 -0.99,0.0472 -3.2175,0.17265 -4.95,0.27874 -6.76462,0.41428 -14.44644,0.82871 -16.5,0.89017 -0.9075,0.0272 -2.46,0.13632 -3.45,0.24257 -0.99,0.10626 -2.05546,0.12097 -2.36768,0.0327 z M 24.900583,101.625 C 24.742979,101.25375 24.330865,99.8025 23.984775,98.4 23.454308,96.250326 18.08582,77.235714 16.18424,70.771332 c -0.414769,-1.41 -0.771297,-2.063109 -1.240531,-2.272488 -0.456639,-0.20376 -0.76637,-0.746721 -1.010451,-1.771335 C 13.739675,65.914881 13.007671,63.225 12.306582,60.75 10.766444,55.312971 10.033605,52.452036 9.7688022,50.842749 9.4476213,48.890829 9.3219696,45.321831 9.5690544,45.169125 9.9415551,44.938908 46.527621,38.999424 47.529741,39.006483 c 0.661161,0.0046 1.680441,0.57297 3.620259,2.018526 36.168846,26.953083 36.743382,27.378507 39,28.878168 1.155,0.767568 2.862615,1.825464 3.7947,2.350881 1.776624,1.001487 2.260044,1.608936 1.662468,2.089014 C 95.410725,74.50089 93.765,75.17514 91.95,75.841404 90.135,76.507668 83.9925,78.932901 78.3,81.230808 72.6075,83.528715 62.3475,87.671538 55.5,90.437079 29.13438,101.08552 26.077336,102.3 25.63904,102.3 c -0.248547,0 -0.580852,-0.30375 -0.738457,-0.675 z M 131.34399,95.215419 c -0.26652,-0.266517 -2.8942,-1.732614 -5.83928,-3.257991 -5.93551,-3.074232 -6.38261,-3.531069 -4.54957,-4.648638 1.71562,-1.04598 2.123,-0.865254 6.35624,2.819772 5.15165,4.484505 5.63427,4.954869 5.4274,5.289591 -0.26274,0.425121 -0.85268,0.339372 -1.39479,-0.202734 z"
       id="path4178"
       inkscape:connector-curvature="0" />
    <path
       style="fill:#fbfbfb"
       d="m 72.9,162.5843 c -3.0525,-0.11424 -8.557986,-0.22494 -12.234414,-0.24601 -5.621604,-0.0322 -6.711699,-0.10938 -6.856002,-0.48543 -0.11349,-0.29576 1.314459,-1.98877 4.217589,-5.00049 2.414043,-2.50434 4.344516,-4.69937 4.289937,-4.87785 -0.05458,-0.17849 -5.860053,-2.62757 -12.901056,-5.44241 -7.041003,-2.81483 -12.859692,-5.17733 -12.930417,-5.25 -0.07073,-0.0727 -0.175179,-0.40211 -0.232116,-0.73211 -0.07892,-0.45741 0.08339,-0.62168 0.682968,-0.69121 0.539334,-0.0625 0.961443,-0.41608 1.34322,-1.125 0.306204,-0.56859 0.62004,-1.03379 0.697413,-1.03379 0.203076,0 19.27182,-2.31185 25.865871,-3.13591 4.88118,-0.61 5.739561,-0.79856 6.744642,-1.48152 0.633405,-0.43042 1.297452,-0.78257 1.475658,-0.78257 0.927198,0 4.278093,-2.02431 12.886707,-7.78498 1.65,-1.10415 3.258726,-2.10361 3.57495,-2.22103 0.567624,-0.21077 6.001335,-3.4514 10.37505,-6.18759 1.2375,-0.77419 5.49,-3.40635 9.45,-5.84925 3.96,-2.4429 7.92144,-4.90494 8.80321,-5.47119 0.88176,-0.56625 1.66371,-0.96904 1.73766,-0.89509 0.18023,0.18023 -2.63512,2.35083 -8.44087,6.50783 -6.67864,4.782 -8.94577,6.55601 -9.33642,7.30569 -0.29765,0.5712 0.0263,1.1625 2.81058,5.13067 2.41169,3.4371 3.07972,4.59369 2.85907,4.95 -0.32341,0.52222 -2.84086,1.52136 -11.78323,4.6766 l -6.15,2.16997 -0.198249,3.40919 c -0.109038,1.87505 -0.267057,8.03992 -0.351153,13.69971 -0.10956,7.37354 -0.255111,10.41368 -0.513483,10.725 -0.398754,0.48046 -5.25279,0.51675 -15.887115,0.11877 z m 85.35,-25.57415 c -3.24529,-1.85577 -26.8708,-15.28553 -27.75,-15.77429 -0.8291,-0.46092 -0.6623,-1.27336 0.5587,-2.7214 0.66659,-0.79053 3.52333,-4.32344 6.3483,-7.8509 2.82498,-3.52746 5.46429,-6.66123 5.86515,-6.96394 0.88258,-0.66649 -0.83204,-1.58498 15.57785,8.3448 6.765,4.09357 14.9325,9.02171 18.15,10.95142 11.21751,6.72777 20.55474,12.39279 21.21557,12.87176 1.13463,0.82237 0.81275,1.14141 -1.19057,1.18003 -1.03125,0.0199 -9.08871,0.44479 -17.90547,0.94425 -8.81675,0.49947 -16.37675,0.90749 -16.8,0.90672 -0.42324,-9e-4 -2.25453,-0.85057 -4.06953,-1.88845 z M 25.248858,101.90885 C 25.085065,101.71148 24.662773,100.4025 24.310429,99 23.958087,97.5975 21.892578,90.191874 19.72041,82.543053 16.200988,70.150173 15.696381,68.607735 15.085507,68.375481 14.708478,68.232135 14.4,67.905111 14.4,67.648767 14.4,67.39242 13.708337,64.722828 12.86297,61.716342 10.299293,52.598802 9.9209073,50.961213 9.7126701,48.082377 9.5509854,45.847119 9.593028,45.290355 9.9312387,45.187908 10.161557,45.118143 14.6025,44.374302 19.8,43.534929 24.9975,42.695553 33.47223,41.32287 38.632731,40.48452 l 9.382731,-1.52427 1.567269,1.138782 C 50.44473,40.725366 56.145,44.958702 62.25,49.50645 c 23.773911,17.709699 27.399477,20.350566 30.295935,22.067574 1.647768,0.976785 3.037512,1.991955 3.088323,2.255934 0.06832,0.354918 -0.516789,0.697683 -2.245935,1.315701 C 91.424157,75.847677 59.232144,88.776426 36.45,98.012862 26.998588,101.8447 25.599472,102.33134 25.248858,101.90885 Z M 131.48991,95.01324 c -0.13195,-0.212718 -2.63498,-1.581216 -5.56229,-3.041106 -2.92731,-1.459893 -5.46089,-2.821239 -5.63018,-3.025215 -0.49789,-0.599928 -0.0347,-1.266861 1.23178,-1.773609 0.65061,-0.260319 1.24439,-0.47331 1.31952,-0.47331 0.19392,0 7.07203,5.926821 7.83277,6.749454 0.34733,0.375588 0.92108,0.837861 1.275,1.027272 0.35392,0.189411 0.64349,0.474633 0.64349,0.633828 0,0.425457 -0.83101,0.352608 -1.11009,-0.09731 z"
       id="path4176"
       inkscape:connector-curvature="0" />
    <path
       style="fill:#fafafa"
       d="m 80.1,162.70954 c -0.4125,-0.0553 -6.467988,-0.22933 -13.456644,-0.38669 -6.988653,-0.15738 -12.786549,-0.36604 -12.884211,-0.46371 -0.09766,-0.0977 0.902994,-1.28717 2.223684,-2.64335 4.19724,-4.31004 6.417171,-6.81459 6.417171,-7.23993 0,-0.45155 -0.608544,-0.70871 -15.45,-6.52896 -5.445,-2.13532 -10.1025,-4.08517 -10.35,-4.33299 -0.400035,-0.40055 -0.385341,-0.49851 0.132339,-0.88225 0.320286,-0.23741 0.845403,-0.43166 1.166928,-0.43166 0.321522,0 0.734469,-0.19232 0.917661,-0.42737 0.242664,-0.31136 4.424865,-0.92037 15.407634,-2.24367 12.401688,-1.49427 15.29661,-1.9296 16.326867,-2.4552 1.455162,-0.74237 6.462747,-3.94784 14.425413,-9.23405 2.269764,-1.50684 4.229406,-2.73971 4.354761,-2.73971 0.260202,0 2.71086,-1.43573 7.268397,-4.25824 1.7325,-1.07294 4.5675,-2.8275 6.3,-3.89901 1.7325,-1.07152 5.48452,-3.40371 8.33782,-5.18266 2.85329,-1.77896 5.24331,-3.17896 5.31114,-3.11113 0.0678,0.0678 -2.40169,1.97181 -5.48782,4.23106 -8.10809,5.93566 -9.69892,7.17513 -10.35072,8.06467 l -0.58231,0.79469 3.08901,4.42053 c 2.75022,3.93572 3.03433,4.46052 2.59048,4.78507 -0.45972,0.33616 -4.98176,2.05676 -12.8076,4.87319 l -3.15,1.13366 -0.193767,2.09908 c -0.149034,1.61452 -0.643356,23.21712 -0.570978,24.95266 0.0081,0.19447 -0.197397,0.56572 -0.456684,0.825 -0.382446,0.38245 -1.161033,0.46295 -4.125,0.42648 -2.009463,-0.0247 -3.991071,-0.0902 -4.403571,-0.14551 z m 81.3,-24.19767 c -0.5775,-0.21444 -7.3275,-3.97528 -15,-8.35743 -7.6725,-4.38214 -14.52375,-8.25983 -15.225,-8.61708 -0.70125,-0.35726 -1.275,-0.79472 -1.275,-0.97214 0,-0.46298 0.95956,-1.76755 4.05664,-5.51522 1.49992,-1.815 4.06953,-4.9875 5.71024,-7.05 3.30185,-4.15067 3.62574,-4.47667 4.46133,-4.49046 0.31802,-0.005 2.07302,0.92332 3.9,2.06349 1.82699,1.14017 5.34679,3.27992 7.82179,4.75501 2.475,1.47509 10.3725,6.23386 17.55,10.57504 7.1775,4.34119 15.51017,9.35983 18.51704,11.15254 3.00688,1.79271 5.83451,3.57555 6.28362,3.96186 l 0.81657,0.70238 -2.83362,0.19275 c -1.55848,0.10601 -4.18361,0.26135 -5.83361,0.3452 -2.84378,0.1445 -4.11484,0.21496 -10.5,0.58207 -3.69897,0.21267 -7.87673,0.44387 -11.1,0.61427 -1.485,0.0785 -3.51,0.21135 -4.5,0.29519 -1.11038,0.094 -2.20228,0.003 -2.85,-0.23747 z M 25.048527,101.625 C 24.975574,101.41875 24.584834,99.8325 24.180217,98.1 23.385262,94.696152 16.383121,69.885297 15.904089,68.775 15.743915,68.40375 15.424168,68.1 15.19354,68.1 14.921966,68.1 14.563452,67.280775 14.176057,65.775 13.84707,64.49625 12.81352,60.694743 11.879281,57.32721 10.699394,53.074224 10.111254,50.342175 9.9533778,48.380949 9.8283708,46.828041 9.8145081,45.502836 9.9225717,45.43605 10.474315,45.095055 47.468607,39.254319 48.058866,39.415014 c 0.380124,0.103485 4.071069,2.718693 8.202102,5.81157 25.128246,18.813363 32.037972,23.867352 35.461815,25.937886 2.104968,1.272957 3.827217,2.477901 3.827217,2.677653 0,0.199749 -0.6075,0.599721 -1.35,0.888825 C 88.821108,76.825305 75.133545,82.289673 65.7,86.10876 38.03457,97.308861 26.234563,102 25.727458,102 c -0.300459,0 -0.605978,-0.16875 -0.678931,-0.375 z M 128.59082,93.132732 C 126.01564,92.188596 120.3,88.979634 120.3,88.477977 c 0,-0.665361 0.59543,-1.132062 1.73512,-1.360002 0.84926,-0.169851 1.22079,0.07204 4.38139,2.852565 4.38406,3.856851 4.49025,4.011285 2.17431,3.162192 z"
       id="path4174"
       inkscape:connector-curvature="0" />
    <path
       style="fill:#f9f9f9"
       d="M 78.45,162.58856 C 75.81,162.46981 69.22875,162.27171 63.825,162.14833 57.62043,162.00667 54,161.81339 54,161.62382 c 0,-0.1651 1.663353,-2.017 3.696342,-4.11533 4.384227,-4.52515 5.154705,-5.51438 4.625058,-5.93818 -0.432141,-0.34578 -8.570706,-3.63687 -16.1214,-6.51921 -7.967175,-3.04132 -9.6,-3.76189 -9.6,-4.23652 0,-0.80647 1.518084,-1.08446 4.8,-0.87895 2.671791,0.16729 4.766802,0.003 13.8,-1.08376 5.8575,-0.70455 10.7175,-1.37 10.8,-1.47878 0.0825,-0.10878 0.8925,-0.51542 1.8,-0.90364 1.763259,-0.75431 3.077703,-1.52389 7.35,-4.30326 1.485,-0.96608 3.8475,-2.50044 5.25,-3.4097 1.4025,-0.90926 3.937146,-2.57644 5.632548,-3.70484 1.695402,-1.12841 3.180402,-2.05175 3.3,-2.05187 0.30057,-3e-4 7.317963,-4.25413 13.867452,-8.40622 5.45004,-3.45509 8.76053,-5.43302 8.885,-5.30856 0.0631,0.0631 -2.44618,2.02933 -5.57624,4.36932 -6.21791,4.64845 -9.182856,7.30572 -8.831736,7.91525 0.120528,0.20924 1.286175,1.90555 2.590326,3.76959 1.30415,1.86404 2.32877,3.60491 2.27692,3.8686 -0.10822,0.55038 -1.53683,1.18074 -8.079103,3.56481 l -4.684833,1.70719 -0.204246,2.13512 c -0.281127,2.93875 -0.748665,23.21633 -0.5619,24.37016 0.119781,0.74001 0.0054,1.03723 -0.548172,1.425 -0.768627,0.53836 -1.661763,0.55428 -10.016016,0.17852 z m 67.38775,-32.81094 c -8.47673,-4.85766 -15.52929,-8.94916 -15.67234,-9.09221 -0.33326,-0.33326 -0.0882,-0.66492 7.02142,-9.5012 3.86797,-4.80739 6.18334,-7.44059 6.64422,-7.55626 0.53329,-0.13385 1.43477,0.28335 3.66316,1.6953 1.62569,1.03006 6.60079,4.06229 11.05579,6.7383 4.455,2.676 12.6225,7.59678 18.15,10.93506 5.5275,3.33828 12.48,7.52532 15.45,9.30454 2.97,1.77922 5.63216,3.49168 5.9159,3.80546 0.50547,0.55899 0.2144,0.58717 -14.4,1.39412 -8.20375,0.45297 -16.6034,0.88781 -18.6659,0.9663 l -3.75,0.14271 -15.41225,-8.83212 z M 25.085686,101.50042 C 24.991699,101.19769 24.576326,99.3975 24.162634,97.5 23.748942,95.6025 21.732955,88.1775 19.682662,81 16.760344,70.769784 15.856608,67.967919 15.500162,68.032932 c -0.250083,0.04561 -0.524541,-0.156891 -0.609907,-0.45 -3.240212,-11.125479 -4.698214,-17.074398 -4.788675,-19.538697 -0.08364,-2.278458 -0.04445,-2.471154 0.529045,-2.60151 0.340656,-0.07743 3.521875,-0.608157 7.069375,-1.17939 3.5475,-0.571233 9.825,-1.586412 13.95,-2.255958 4.125,-0.669543 9.1875,-1.491078 11.25,-1.825635 2.0625,-0.334557 4.040772,-0.669126 4.396158,-0.74349 0.641952,-0.134325 1.331064,0.366114 33.253842,24.149148 7.292442,5.433 9.069933,6.630141 12.975,8.738688 1.052439,0.568263 1.875,1.215474 1.875,1.475295 0,0.303993 -0.798102,0.755685 -2.325,1.315854 C 90.299481,76.135482 76.91922,81.48996 57,89.553642 36.845421,97.712604 26.990075,101.63104 26.053285,101.85791 c -0.614478,0.1488 -0.835802,0.067 -0.967599,-0.35749 z M 124.44882,90.975 c -4.42364,-2.240127 -4.90587,-2.789298 -3.1087,-3.540204 0.59746,-0.249636 1.2491,-0.357201 1.44809,-0.239031 0.53895,0.320058 6.51179,5.525679 6.51179,5.675346 0,0.411507 -1.28968,-0.09257 -4.85118,-1.896111 z"
       id="path4172"
       inkscape:connector-curvature="0" />
    <path
       style="fill:#f8f8f8"
       d="m 81.75,162.57601 c -2.97,-0.11184 -10.26,-0.29836 -16.2,-0.41448 -5.94,-0.11612 -10.993938,-0.2729 -11.230971,-0.34839 -0.292452,-0.0932 0.295161,-0.88066 1.828254,-2.4502 3.378327,-3.45865 6.602703,-7.26298 6.476544,-7.64146 -0.124269,-0.37281 -5.784312,-2.69061 -17.467068,-7.15279 -4.286283,-1.63713 -7.992996,-3.17636 -8.237142,-3.4205 -1.141872,-1.14187 0.813417,-1.33675 8.872545,-0.88429 3.111747,0.1747 4.830942,0.0611 11.805042,-0.7801 l 8.16288,-0.98457 2.894958,-1.86508 c 3.583809,-2.30887 7.230042,-4.68463 14.664213,-9.55473 3.173088,-2.07868 5.878263,-3.77942 6.011493,-3.77942 0.133233,0 1.587069,-0.82665 3.230745,-1.83701 6.814128,-4.18858 8.265157,-5.09063 11.959967,-7.43508 6.5054,-4.12782 6.59979,-4.03732 0.55354,0.53079 -2.43375,1.83876 -5.235,3.95787 -6.225,4.70912 -1.978866,1.50165 -2.85,2.40678 -2.85,2.96123 0,0.19942 1.141869,2.00755 2.537484,4.01805 3.013786,4.34162 3.397606,3.67658 -3.587484,6.216 -2.64,0.95976 -4.890825,1.82195 -5.001837,1.91597 -0.437523,0.37053 -0.85353,7.56267 -1.007394,17.41632 -0.08885,5.68996 -0.258117,10.43353 -0.376155,10.54128 -0.437415,0.39926 -1.539675,0.43797 -6.814614,0.23934 z m 75.45,-26.43328 c -2.3925,-1.37974 -9.44625,-5.39387 -15.675,-8.92031 -6.93241,-3.92481 -11.325,-6.58438 -11.325,-6.85691 0,-0.24487 0.90039,-1.54104 2.00087,-2.88036 1.10048,-1.33933 4.02005,-4.96272 6.48792,-8.05197 2.46788,-3.08925 4.75179,-5.70085 5.07536,-5.80354 0.38619,-0.12257 1.12039,0.15009 2.13708,0.79365 2.18847,1.38529 23.7893,14.44292 45.62961,27.58296 3.45447,2.07834 6.33189,3.93193 6.39427,4.11907 0.16844,0.50533 -1.02918,0.63298 -10.57511,1.12721 -4.785,0.24774 -10.7925,0.5802 -13.35,0.73882 -2.5575,0.15861 -6.405,0.372 -8.55,0.47419 l -3.9,0.1858 -4.35,-2.50861 z M 25.26488,101.49827 c -0.154625,-0.30155 -0.521381,-1.808117 -0.815015,-3.34793 -0.519878,-2.726238 -0.519009,-2.813412 0.03313,-3.32403 0.311854,-0.288405 3.739507,-1.780029 7.617007,-3.314724 3.8775,-1.534692 7.455,-2.966547 7.95,-3.181896 0.495,-0.215352 2.4525,-1.013838 4.35,-1.774413 1.8975,-0.760575 3.72,-1.507935 4.05,-1.660797 0.33,-0.152862 1.3425,-0.555378 2.25,-0.89448 0.9075,-0.339102 1.92,-0.742947 2.25,-0.897435 0.33,-0.154488 4.11,-1.690203 8.4,-3.412698 13.534218,-5.434185 19.171878,-7.711341 20.1,-8.118756 0.495,-0.21729 1.575,-0.6432 2.4,-0.946467 0.825,-0.303267 1.8375,-0.724545 2.25,-0.936171 0.959577,-0.492297 1.470699,-0.48498 2.4,0.03436 0.4125,0.230526 2.1,1.140945 3.75,2.023152 1.684533,0.900672 3,1.794879 3,2.039289 0,0.261417 -0.778851,0.724611 -1.95,1.159689 -2.918436,1.084188 -14.345025,5.66487 -40.35,16.175478 -12.87,5.201754 -24.075,9.696279 -24.9,9.987839 -0.825,0.29156 -1.725897,0.62194 -2.001992,0.73418 -0.32903,0.13376 -0.598859,0.0152 -0.783128,-0.34419 z M 126.3,91.850094 c -2.41023,-1.030434 -6,-3.022407 -6,-3.329418 0,-0.457593 1.11567,-1.220676 1.78471,-1.220676 0.43207,0 1.78853,0.953439 3.65137,2.566515 3.76809,3.26286 3.7974,3.365973 0.56392,1.983579 z M 14.708817,66.08598 C 14.502398,65.296191 14.011666,63.57 13.618302,62.25 10.899494,53.126574 9.8595855,48.255012 10.417898,47.257365 c 0.219237,-0.391758 0.417404,-0.0693 0.91488,1.488696 0.349263,1.093827 0.560325,2.183436 0.469026,2.421357 -0.0913,0.237921 -0.02079,0.432582 0.156684,0.432582 0.177475,0 0.244975,0.2025 0.15,0.45 -0.09497,0.2475 -0.02747,0.45 0.15,0.45 0.177475,0 0.244975,0.2025 0.15,0.45 -0.09497,0.2475 -0.05699,0.450096 0.08441,0.450213 0.141404,1.14e-4 0.278402,0.367107 0.304441,0.815532 0.06532,1.124973 0.945734,4.180704 1.632794,5.667114 C 14.743562,60.560931 15,61.557768 15,62.098053 15,63.23826 15.595501,65.4 15.909596,65.4 c 0.334955,0 -0.135048,1.891818 -0.500245,2.013549 -0.178875,0.05962 -0.494115,-0.53778 -0.700534,-1.327569 z"
       id="path4170"
       inkscape:connector-curvature="0" />
    <path
       style="fill:#f7f7f7"
       d="M 78.875001,162.47603 C 78.80625,162.40785 73.2825,162.1914 66.6,161.99504 c -6.6825,-0.19636 -12.205683,-0.41001 -12.273738,-0.47477 -0.06806,-0.0648 1.285017,-1.56956 3.006828,-3.34401 3.683244,-3.79583 5.36691,-5.81559 5.36691,-6.43826 0,-0.46663 -3.456711,-1.89788 -17.25,-7.14237 -3.795,-1.44294 -7.27125,-2.7714 -7.725,-2.95215 -0.899616,-0.35835 -1.099683,-1.15691 -0.360876,-1.44041 0.255267,-0.098 4.573335,-0.0179 9.595707,0.17783 13.742406,0.53566 13.425885,0.55097 16.706124,-0.80793 1.531224,-0.63433 3.999045,-1.94472 5.484045,-2.91197 2.732025,-1.77949 7.523652,-4.92067 15.45,-10.1283 2.3925,-1.57188 4.931808,-3.15164 5.642904,-3.51057 1.086342,-0.54833 4.772181,-2.81913 13.335276,-8.21571 2.75302,-1.73499 1.67439,-0.58972 -2.2256,2.36312 -5.348248,4.04935 -6.290176,4.84651 -7.052758,5.96875 l -0.655794,0.96508 2.266245,3.22434 c 1.921254,2.7335 2.203335,3.28664 1.852986,3.63356 -0.227292,0.22507 -1.830759,0.95615 -3.563259,1.62462 -5.154588,1.98887 -4.59519,1.23053 -4.99758,6.77492 -0.366825,5.05433 -0.58899,21.19461 -0.298215,21.66509 0.09392,0.15198 -0.03375,0.56832 -0.283728,0.92521 -0.432186,0.61704 -0.679485,0.64889 -5.037489,0.64889 -2.520642,0 -4.639239,-0.0558 -4.707987,-0.12397 z m 83.038849,-24.07977 c -0.45988,-0.0761 -7.47988,-3.92702 -15.6,-8.55771 -8.12012,-4.6307 -15.0676,-8.55792 -15.43885,-8.72715 -0.37125,-0.16924 -0.675,-0.48509 -0.675,-0.70189 0,-0.2168 0.90568,-1.51138 2.01262,-2.87685 1.10694,-1.36546 3.95977,-4.91266 6.33961,-7.88266 2.37984,-2.97 4.63203,-5.59114 5.00486,-5.82475 0.62793,-0.39346 0.85152,-0.31353 3.03539,1.08515 1.29663,0.83044 13.15752,8.01906 26.35752,15.97469 13.2,7.95564 24.19446,14.65285 24.43214,14.88271 0.23768,0.22985 0.35622,0.49384 0.26343,0.58663 -0.14917,0.14917 -8.53561,0.69975 -18.09557,1.188 -1.815,0.0927 -4.1775,0.2311 -5.25,0.30756 -1.0725,0.0765 -3.435,0.21059 -5.25,0.29808 -1.815,0.0875 -3.975,0.21022 -4.8,0.27275 -0.825,0.0625 -1.87627,0.0515 -2.33615,-0.0246 z M 25.043375,100.575 c -0.382892,-2.343444 -0.492225,-2.93949 -0.628512,-3.426444 -0.185481,-0.662721 0.872207,-1.614636 2.4016,-2.161428 0.678445,-0.242559 4.271037,-1.678569 7.983537,-3.19113 3.7125,-1.512561 12.2175,-4.954368 18.9,-7.648455 6.6825,-2.69409 14.85,-5.992788 18.15,-7.33044 3.3,-1.337652 8.399802,-3.393714 11.332893,-4.569024 l 5.332896,-2.136927 1.23216,0.569424 c 3.090153,1.428069 5.502051,2.798946 5.502051,3.12726 0,0.197472 -0.7425,0.629556 -1.65,0.960183 -2.800977,1.020474 -9.165249,3.555675 -24.3,9.679878 C 36.525993,97.709736 26.480998,101.7 25.869978,101.7 c -0.510102,0 -0.680734,-0.23223 -0.826603,-1.125 z m 98.979785,-9.929178 c -3.56828,-1.744977 -4.04257,-2.188074 -3.07071,-2.868792 1.19367,-0.836079 1.29948,-0.777141 5.79755,3.229182 1.67815,1.494693 0.84013,1.383936 -2.72684,-0.36039 z M 13.836316,62.25 c -0.332609,-0.788922 -0.958046,-3.507249 -0.923996,-4.015947 0.0068,-0.101229 0.35193,0.605799 0.76701,1.571172 0.415079,0.965373 0.70558,2.112873 0.645557,2.55 L 14.215754,63.15 13.836316,62.25 Z M 11.447697,53.441214 C 10.758862,50.927715 10.641754,50.094678 11.04336,50.565 c 0.328656,0.384891 1.396559,4.895082 1.204508,5.087133 -0.08386,0.08386 -0.443938,-0.911052 -0.800171,-2.210919 z"
       id="path4168"
       inkscape:connector-curvature="0" />
    <path
       style="fill:#f6f6f6"
       d="m 77.85,162.28665 c -1.485,-0.11544 -7.32375,-0.3164 -12.975,-0.44659 -5.65125,-0.13019 -10.275,-0.32128 -10.275,-0.42466 0,-0.10337 0.687906,-0.85788 1.528677,-1.67668 1.690341,-1.64616 5.585058,-6.1476 6.377829,-7.37138 0.417294,-0.64416 0.43659,-0.8411 0.109035,-1.11294 -0.465342,-0.38621 -8.57724,-3.59333 -14.875842,-5.88132 -10.404237,-3.77939 -11.986299,-4.56873 -10.257015,-5.11758 0.320475,-0.10172 3.054225,-0.05 6.075,0.11482 3.020775,0.16487 8.529816,0.38716 12.242316,0.49398 l 6.75,0.19421 2.1,-1.27182 c 1.155,-0.6995 4.58859,-2.90642 7.630203,-4.90425 3.04161,-1.99784 6.368856,-4.17244 7.393878,-4.83244 1.025022,-0.66 3.598932,-2.35492 5.719797,-3.76648 2.120868,-1.41156 4.073133,-2.64869 4.338372,-2.74918 0.464907,-0.17613 3.086619,-1.76402 9.966468,-6.03636 1.786792,-1.10959 3.172432,-1.89401 3.079202,-1.74316 -0.0932,0.15086 -1.55515,1.32278 -3.248717,2.60427 -4.759428,3.60139 -7.033236,5.54166 -7.376076,6.29411 -0.274035,0.60145 -0.05119,1.06749 1.761945,3.68478 2.430678,3.50872 2.520453,3.23948 -1.618536,4.85428 l -2.746536,1.07155 -0.07264,1.1931 c -0.03995,0.6562 -0.208929,2.40809 -0.375504,3.89309 -0.166572,1.485 -0.374934,7.20941 -0.46302,12.7209 -0.08809,5.5115 -0.230829,10.13525 -0.317202,10.275 -0.17898,0.2896 -6.439575,0.25417 -10.471632,-0.0592 z m 81,-25.37214 c -1.88206,-1.083 -23.38045,-13.31719 -27.6,-15.70647 -0.495,-0.28029 -0.9,-0.65968 -0.9,-0.8431 0,-0.44695 12.31503,-15.83638 13.12882,-16.40638 0.57505,-0.40278 0.73195,-0.3917 1.55538,0.10983 0.50369,0.30679 12.2558,7.40346 26.1158,15.77039 29.51278,17.8161 26.67722,16.05495 26.35707,16.37028 -0.24757,0.24383 -30.77951,2.09517 -34.45707,2.08933 -1.58911,-0.002 -2.08119,-0.16466 -4.2,-1.38388 z M 25.33741,101.37963 c -0.108901,-0.1762 -0.267912,-1.09136 -0.353358,-2.033679 -0.113918,-1.25631 -0.04297,-1.806582 0.266005,-2.063007 0.930329,-0.772104 4.55114,-2.350122 15.566125,-6.78402 C 47.159781,87.945417 54.915,84.817731 58.05,83.548509 c 3.135,-1.269219 9.885,-3.997269 15,-6.062334 5.115,-2.065068 10.764303,-4.346655 12.554004,-5.070201 1.789701,-0.723543 3.379845,-1.237761 3.533649,-1.142703 0.153804,0.09506 0.793389,0.209424 1.421301,0.254148 1.359024,0.0968 4.391046,1.645599 4.391046,2.243004 0,0.26322 -1.514382,1.00032 -4.05,1.971273 C 88.6725,76.594662 73.89,82.530867 58.05,88.93326 31.096272,99.82773 26.362448,101.7 25.77074,101.7 c -0.129431,0 -0.32443,-0.14417 -0.43333,-0.32037 z m 98.23913,-11.013567 c -2.93893,-1.490958 -3.55254,-2.278764 -2.1725,-2.789274 0.72028,-0.266451 1.71994,0.372453 4.44596,2.84154 1.95454,1.770318 1.28901,1.755018 -2.27346,-0.05227 z"
       id="path4166"
       inkscape:connector-curvature="0" />
    <path
       style="fill:#f5f5f5"
       d="m 76.069602,162.13688 c -6.361434,-0.40992 -8.285271,-0.62784 -9.292191,-1.05256 -0.345075,-0.14555 -2.238153,-0.91629 -4.20684,-1.71276 -1.968684,-0.79647 -3.623715,-1.58099 -3.677847,-1.74339 -0.05413,-0.16239 0.5805,-1.16891 1.410294,-2.23672 0.829794,-1.0678 1.845267,-2.4477 2.256612,-3.06645 0.411342,-0.61875 0.931032,-1.125 1.154862,-1.125 0.22383,0 2.078385,0.68737 4.121235,1.52748 2.04285,0.84011 6.211773,2.54344 9.264273,3.78517 3.0525,1.24173 6.6975,2.72659 8.1,3.29969 1.4025,0.57309 2.725545,1.05226 2.940102,1.06483 0.23874,0.014 0.35514,0.32354 0.3,0.79783 l -0.0901,0.775 -3.15,0.0361 c -1.7325,0.0199 -5.84118,-0.13729 -9.130398,-0.34924 z M 56.048214,148.17094 C 51.291783,146.68766 37.91754,141.74033 37.275,141.22645 c -1.201263,-0.96073 0.09496,-1.1468 5.755272,-0.82616 2.650851,0.15016 6.844728,0.3521 9.319728,0.44876 2.475,0.0966 5.832426,0.24135 7.460946,0.32155 2.926644,0.14412 2.978778,0.13462 4.5,-0.82027 2.12817,-1.33588 9.812142,-6.36885 18.08988,-11.84881 3.822954,-2.53084 7.031715,-4.60152 7.13058,-4.60152 0.09887,0 2.100996,-1.19597 4.449177,-2.65771 2.348178,-1.46174 4.606917,-2.81616 5.019417,-3.00982 0.912438,-0.42836 0.646236,-0.20016 -4.698033,4.02734 -2.280585,1.80402 -3.78756,3.22257 -4.020264,3.78436 -0.354771,0.8565 -0.286107,1.02294 1.463823,3.54815 2.02779,2.92617 2.029824,2.89488 -0.245526,3.77843 -1.912101,0.74249 -2.099358,0.95072 -2.105238,2.34098 -0.0067,1.59798 -0.813822,6.53222 -1.114104,6.81142 -0.296892,0.27606 -12.086421,4.62485 -15.230658,5.61812 -2.220909,0.70159 -2.851596,0.76005 -8.451786,0.78345 -5.712165,0.0238 -6.191988,-0.0185 -8.55,-0.75378 z M 88.247367,148.5 c 0,-0.4125 0.06809,-0.58125 0.151317,-0.375 0.08322,0.20625 0.08322,0.54375 0,0.75 -0.08322,0.20625 -0.151317,0.0375 -0.151317,-0.375 z m 64.134983,-15.38484 c -5.02279,-2.85167 -12.06794,-6.85614 -15.65588,-8.89885 l -6.52354,-3.714 0.52354,-0.79738 c 0.28794,-0.43856 1.83091,-2.40783 3.42881,-4.37616 1.59791,-1.96832 4.3004,-5.33377 6.00554,-7.47877 2.11768,-2.66397 3.31995,-3.93137 3.79347,-3.99898 0.44008,-0.0628 1.42401,0.39021 2.69447,1.24064 1.10068,0.73679 4.70124,2.9571 8.00124,4.93401 3.3,1.97692 11.8725,7.14297 19.05,11.48011 7.1775,4.33713 15.4125,9.29504 18.3,11.01756 2.8875,1.72252 5.3085,3.18919 5.38,3.25926 0.0715,0.0701 0.004,0.24947 -0.15,0.39866 -0.25191,0.24404 -30.51523,2.11913 -34.19765,2.11885 -1.41263,-1e-4 -2.14957,-0.35888 -10.65,-5.18495 z M 25.4,101.5 c -0.398013,-0.39801 -0.199805,-2.757337 0.271216,-3.228358 1.301611,-1.301613 1.646386,-1.450278 27.878784,-12.021228 8.91,-3.590487 20.4525,-8.249217 25.65,-10.35273 5.651253,-2.287155 10.023414,-3.884814 10.876461,-3.974439 1.146669,-0.120477 1.779234,0.01695 3.225,0.700704 0.989196,0.467814 1.798539,0.981492 1.798539,1.141506 0,0.160014 -1.11375,0.715878 -2.475,1.235253 C 90.118677,75.956982 77.51628,80.998623 69,84.451986 66.4425,85.489056 60.84,87.755217 56.55,89.487897 52.26,91.22058 44.4975,94.357194 39.3,96.458157 31.74333,99.512754 26.046582,101.7 25.647454,101.7 25.621354,101.7 25.51,101.61 25.4,101.5 Z m 97.95106,-11.341081 c -2.8271,-1.375977 -3.40706,-2.082843 -1.99887,-2.436273 0.46743,-0.117318 1.00689,-0.01182 1.425,0.278655 1.3241,0.919926 3.66955,3.144849 3.49887,3.319056 -0.0957,0.09764 -1.41192,-0.425004 -2.925,-1.161438 z"
       id="path4164"
       inkscape:connector-curvature="0" />
    <path
       style="fill:#f4f4f4"
       d="m 82.05,162.40721 c -9.346701,-0.71598 -9.01077,-0.65313 -13.65,-2.55374 -8.021772,-3.28639 -8.1,-3.32337 -8.1,-3.82938 0,-0.26724 0.606081,-1.29324 1.346847,-2.27999 0.740766,-0.98675 1.348266,-1.89535 1.35,-2.0191 0.0063,-0.44746 0.886593,-0.1996 4.38888,1.23574 1.96035,0.80341 6.76578,2.76624 10.678731,4.36185 10.468836,4.26894 10.562079,4.31347 10.127976,4.83653 -0.355707,0.4286 -2.601795,0.51932 -6.142434,0.24809 z M 56.248431,146.99714 c -3.133116,-0.21387 -4.186674,-0.43902 -8.1,-1.731 -5.353827,-1.76755 -10.870077,-3.89665 -11.112639,-4.28913 -0.383925,-0.6212 1.257201,-0.67576 9.454998,-0.31434 16.035846,0.70699 17.162751,0.7354 17.363592,0.43773 0.107589,-0.15946 1.005618,-0.80997 1.995618,-1.44557 2.657202,-1.70598 13.516782,-8.86237 18,-11.86189 4.953294,-3.31401 11.85,-7.42774 11.85,-7.06824 0,0.0802 -1.347885,1.23737 -2.995296,2.57149 -1.647414,1.33412 -3.130692,2.67867 -3.296175,2.98787 -0.213195,0.39837 -0.170856,0.93072 0.145299,1.82678 0.245394,0.69553 0.447063,1.61887 0.448149,2.05188 0.0012,0.433 0.270198,1.19228 0.598023,1.68728 0.775857,1.17151 0.762699,1.25046 -0.3,1.8 -0.75009,0.38789 -0.9,0.64742 -0.9,1.55813 0,1.33635 -0.55698,4.63685 -0.867204,5.13881 -0.233154,0.37725 -8.852943,3.76538 -14.432796,5.67301 -3.120183,1.06673 -3.202536,1.07762 -8.7,1.14998 -3.0525,0.0402 -7.170705,-0.0376 -9.151569,-0.17279 z M 161.4,138.07896 c -0.2475,-0.0897 -7.16287,-3.99164 -15.36748,-8.67101 -8.20462,-4.67937 -15.05587,-8.50795 -15.225,-8.50795 -0.87152,0 0.24002,-1.62506 6.17043,-9.0211 4.32106,-5.38895 6.66499,-8.0789 7.03968,-8.0789 0.30895,0 1.68012,0.72731 3.04705,1.61625 2.13072,1.38564 27.54927,16.76339 44.33532,26.82204 2.8875,1.73026 5.43671,3.31852 5.66492,3.52946 0.50144,0.46349 -0.57019,0.63996 -5.36492,0.88345 -8.71356,0.44249 -9.47485,0.48437 -21.9,1.20488 -5.36515,0.31111 -7.96606,0.38012 -8.4,0.22288 z M 25.322645,100.64781 c -0.257769,-1.027026 0.46508,-2.039511 2.168978,-3.038064 C 29.227205,96.592629 34.114092,94.590387 78.15,76.854126 89.947509,72.102465 91.255602,71.765703 93.705513,72.849414 94.472481,73.188681 95.1,73.587525 95.1,73.735734 c 0,0.148212 -0.97875,0.646131 -2.175,1.106493 C 88.235547,76.646895 68.960979,84.39603 42.9,94.954242 31.268772,99.666459 26.735284,101.4 26.043303,101.4 c -0.317545,0 -0.607946,-0.30311 -0.720658,-0.75219 z M 122.81379,89.841993 c -2.45351,-1.278855 -2.38924,-1.21911 -1.91981,-1.784742 0.62778,-0.75642 1.2681,-0.513528 3.15602,1.197165 2.12312,1.923813 1.70691,2.121636 -1.23621,0.587577 z"
       id="path4162"
       inkscape:connector-curvature="0" />
    <path
       style="fill:#f3f3f3"
       d="m 81.868908,162.29551 c -4.791444,-0.26898 -5.556672,-0.41427 -8.668908,-1.64589 -5.398785,-2.13649 -12.132618,-4.96224 -12.354933,-5.18455 -0.309489,-0.30949 2.461575,-4.02758 2.879316,-3.86334 2.075649,0.81609 21.988173,9.01273 23.050617,9.48838 0.78375,0.35088 1.425,0.75221 1.425,0.89183 0,0.36042 -0.81222,0.62594 -1.749537,0.57194 -0.440253,-0.0254 -2.501955,-0.14163 -4.581555,-0.25837 z M 55.35,146.05256 c -5.685675,-0.32081 -7.212141,-0.67805 -14.175,-3.31739 -2.705661,-1.02561 -3.975,-1.65299 -3.975,-1.96466 0,-0.50819 3.64602,-0.43816 18.6,0.35721 4.0425,0.21501 7.55529,0.30798 7.806201,0.20661 0.250911,-0.10138 1.195911,-0.67241 2.1,-1.26894 0.904089,-0.59655 6.638799,-4.38525 12.743799,-8.41935 9.751833,-6.44388 14.269464,-9.3289 15.3,-9.77079 0.402939,-0.17278 -1.506597,1.59844 -3.268041,3.03132 -1.756821,1.42912 -2.533125,2.88734 -2.056857,3.86362 0.803172,1.64638 1.620906,4.76346 1.34196,5.11537 -0.158883,0.20044 -0.382236,1.24194 -0.496341,2.31444 -0.363102,3.41295 0.218709,2.95174 -7.319514,5.80232 -11.38917,4.30682 -10.858494,4.17024 -16.551207,4.25998 -2.7225,0.0429 -7.245,-0.0515 -10.05,-0.20974 z m 102.59219,-9.94173 c -1.8107,-1.03904 -8.72594,-4.9786 -15.36719,-8.75457 -6.64125,-3.77598 -12.075,-6.96408 -12.075,-7.08467 0,-0.43429 12.63624,-16.02785 13.19762,-16.28632 0.45004,-0.20721 1.20863,0.14577 3.49159,1.62468 1.60414,1.03918 5.55907,3.46724 8.78871,5.39571 3.22964,1.92847 11.40708,6.85407 18.17208,10.94579 6.765,4.09171 14.6625,8.84894 17.55,10.57161 5.6847,3.39148 5.56436,3.31258 5.36167,3.51526 -0.16956,0.16957 -31.0937,1.96168 -33.85013,1.96168 -1.87836,0 -2.14167,-0.0944 -5.26935,-1.88917 z M 25.5,100.52667 c 0,-1.635354 1.818687,-2.708985 10.5,-6.198498 6.202188,-2.493015 17.337618,-6.992334 24.6,-9.939738 24.035916,-9.754869 28.404087,-11.430405 30.339834,-11.637708 1.546275,-0.165591 2.176917,-0.105759 2.916519,0.276702 0.519006,0.268389 0.943647,0.607584 0.943647,0.753765 0,0.146181 -0.97875,0.640962 -2.175,1.099509 C 90.325836,75.762021 66.428094,85.377339 43.361346,94.702062 29.502549,100.30447 26.647035,101.4 25.903035,101.4 25.657953,101.4 25.5,101.05773 25.5,100.52667 Z m 97.14643,-10.835073 c -2.02634,-1.04619 -2.26987,-1.350906 -1.4362,-1.797072 0.54342,-0.290832 0.84455,-0.149739 2.2584,1.058145 0.89725,0.766548 1.63137,1.450785 1.63137,1.520526 0,0.311358 -0.87898,0.03136 -2.45357,-0.781599 z"
       id="path4160"
       inkscape:connector-curvature="0" />
    <path
       style="fill:#f2f2f2"
       d="m 79.05,162.01058 c -1.876821,-0.21618 -2.205945,-0.33539 -11.25,-4.07501 -3.0525,-1.26218 -5.78625,-2.36477 -6.075,-2.45021 -0.28875,-0.0854 -0.525,-0.30556 -0.525,-0.48915 0,-0.55889 1.923942,-3.19501 2.33229,-3.19563 0.431679,-6e-4 18.467133,7.30362 22.04271,8.92719 1.27875,0.58065 2.325,1.17194 2.325,1.31398 0,0.29779 -6.183021,0.27602 -8.85,-0.0312 z m -22.8,-16.36364 c -3.795,-0.22566 -7.534617,-0.54963 -8.310261,-0.71993 -1.671948,-0.3671 -9.826674,-3.28076 -10.361436,-3.70212 -1.200879,-0.94622 -0.08855,-0.94965 17.573895,-0.0542 4.676208,0.23708 8.658708,0.33871 8.85,0.22582 1.91811,-1.13186 18.03102,-11.78132 21.497802,-14.20848 1.5675,-1.09743 3.647364,-2.44318 4.621923,-2.99056 l 1.771923,-0.99524 -2.446923,2.48671 c -1.345809,1.36768 -2.444703,2.63842 -2.441988,2.82386 0.0027,0.18544 0.337401,0.87716 0.743748,1.53716 1.479612,2.40322 1.646532,2.99144 1.509729,5.32015 -0.177933,3.02883 -0.476286,3.69154 -1.864806,4.14222 -0.628983,0.20416 -4.125891,1.49007 -7.770906,2.8576 -3.645015,1.36752 -7.425015,2.70254 -8.4,2.96671 -2.535402,0.68695 -7.060788,0.78072 -14.9727,0.31026 z m 104.4,-8.15145 c -0.495,-0.26426 -7.17159,-4.05278 -14.83686,-8.41893 -7.66528,-4.36615 -14.24653,-8.05619 -14.625,-8.20008 -0.37848,-0.1439 -0.68406,-0.36622 -0.67907,-0.49406 0.005,-0.12783 2.33374,-3.14492 5.175,-6.70464 2.84126,-3.55972 5.63843,-7.09527 6.21593,-7.85678 0.5775,-0.7615 1.35598,-1.55176 1.72996,-1.75613 0.598,-0.32678 0.83305,-0.25893 1.95,0.5629 0.69852,0.51395 4.71254,3.01778 8.92004,5.56407 22.01345,13.32204 32.74244,19.79622 37.275,22.49281 4.64024,2.76066 5.63299,3.51165 4.65,3.51763 -0.20625,0.001 -7.3275,0.40457 -15.825,0.89627 -17.81292,1.03071 -18.72875,1.04893 -19.95,0.39694 z M 25.644048,101.09037 c -0.291575,-0.47178 0.747858,-1.722627 2.21245,-2.662455 0.774478,-0.49698 4.104848,-1.996236 7.400822,-3.33168 55.180179,-22.35756 56.227557,-22.751277 58.504638,-21.99225 1.385019,0.461673 1.173564,0.873006 -0.82557,1.605939 C 91.099026,75.383547 82.151454,78.966531 66,85.496382 27.154065,101.20136 25.990517,101.65097 25.644048,101.09037 Z M 122.325,89.492253 C 120.80357,88.645434 120.45906,87.9 121.58911,87.9 c 0.40868,0 1.16598,0.488352 1.86089,1.2 1.36162,1.394433 0.93979,1.541511 -1.125,0.392253 z"
       id="path4158"
       inkscape:connector-curvature="0" />
    <path
       style="fill:#f1f1f1"
       d="m 80.1,161.98094 c -1.310973,-0.1615 -3.52299,-0.89026 -6.75,-2.22384 -2.64,-1.09099 -6.385995,-2.6189 -8.324436,-3.39536 -1.938438,-0.77646 -3.524688,-1.56023 -3.525,-1.74173 -3e-4,-0.18149 0.410484,-0.89742 0.912873,-1.59095 0.748815,-1.03371 1.032666,-1.22358 1.575,-1.05355 1.029042,0.32262 19.951227,8.07973 21.880827,8.97 0.945594,0.43627 1.797312,0.91951 1.892706,1.07386 0.207444,0.33565 -4.830321,0.31038 -7.66197,-0.0384 z m -26.493693,-16.95781 -6.543693,-0.39566 -4.095912,-1.38944 c -7.671717,-2.60245 -7.607817,-2.9976 0.413571,-2.55751 3.11835,0.17109 7.222227,0.3769 9.119727,0.45736 1.8975,0.0805 5.291961,0.2312 7.543248,0.33497 l 4.093248,0.18868 5.806752,-3.81842 c 6.879024,-4.52352 13.203372,-8.77813 16.825335,-11.31898 1.440222,-1.01033 2.705715,-1.74983 2.812212,-1.64333 0.106497,0.10649 -0.633114,1.0546 -1.643583,2.10689 -1.010466,1.0523 -1.837212,2.04981 -1.837212,2.2167 0,0.50084 0.948099,2.25329 2.054241,3.79702 0.818508,1.14231 1.035804,1.72837 1.02033,2.75187 -0.03729,2.46687 -0.355122,2.74491 -5.174571,4.52676 -2.3925,0.88455 -5.97,2.21385 -7.95,2.95399 -1.98,0.74014 -4.4775,1.55077 -5.55,1.8014 -2.365737,0.55285 -7.609779,0.54903 -16.893693,-0.0123 z M 158.85,136.34865 c -1.32,-0.74079 -2.6025,-1.48087 -2.85,-1.64463 -0.2475,-0.16375 -0.99,-0.58816 -1.65,-0.94312 -0.66,-0.35496 -5.88095,-3.32179 -11.60212,-6.59295 -5.72117,-3.27116 -10.82123,-6.1209 -11.33346,-6.33276 l -0.93134,-0.38519 0.68346,-0.94268 c 2.24012,-3.08975 11.87158,-14.94951 12.44673,-15.32637 0.64763,-0.42434 0.78323,-0.38135 2.26282,0.71742 2.18005,1.61894 4.32903,2.96736 12.97391,8.14069 4.125,2.46852 12.0225,7.22035 17.55,10.55964 5.5275,3.33929 12.3149,7.42451 15.0831,9.07827 2.76821,1.65375 4.97732,3.06261 4.90914,3.13079 -0.16902,0.16902 -30.07923,1.88421 -32.89224,1.88619 -2.11087,0.001 -2.3984,-0.0817 -4.65,-1.3453 z M 26.010093,100.67528 c 0.427683,-0.75716 2.600757,-2.337746 4.200141,-3.054977 0.858126,-0.384822 6.123126,-2.541669 11.7,-4.792992 C 47.487105,90.575988 54.5475,87.722952 57.6,86.487234 87.921843,74.212296 91.665975,72.839535 93.731622,73.239807 c 1.189749,0.230547 0.707805,0.788559 -1.398597,1.619352 C 89.960907,75.794751 68.777823,84.32907 45.45,93.747564 27.401789,101.03444 25.405345,101.7459 26.010093,100.67528 Z M 122.17044,89.320077 c -0.70376,-0.353487 -1.23257,-0.783864 -1.17514,-0.956391 0.2114,-0.635055 0.98517,-0.423657 2.1547,0.588678 1.35165,1.169982 0.9316,1.327659 -0.97956,0.367713 z"
       id="path4156"
       inkscape:connector-curvature="0" />
    <path
       style="fill:#f0f0f0"
       d="m 81.3,162.00334 c -0.990054,-0.13079 -4.529766,-1.39201 -8.85,-3.15329 -3.96,-1.61442 -7.875,-3.19639 -8.7,-3.51549 -0.825,-0.31909 -1.622799,-0.69946 -1.772883,-0.84525 -0.35916,-0.34888 1.247895,-2.7823 1.718217,-2.60174 1.479282,0.56789 16.205193,6.61726 19.629666,8.06382 2.35125,0.99321 4.275,1.92796 4.275,2.07722 0,0.31211 -3.863565,0.29662 -6.3,-0.0253 z M 52.248633,144.41842 c -6.584634,-0.39822 -6.765828,-0.42705 -10.402119,-1.65501 -6.87489,-2.3216 -6.368346,-2.45602 6.603486,-1.75233 5.775,0.31328 11.7825,0.57187 13.35,0.57463 l 2.85,0.005 6.15,-4.01746 c 6.09465,-3.98132 7.75296,-5.10851 14.368248,-9.76644 1.880034,-1.32377 3.563634,-2.40685 3.741333,-2.40685 0.177696,0 -0.501513,0.84375 -1.509357,1.875 -2.418003,2.47416 -2.617842,2.8919 -1.993683,4.16755 0.844902,1.72682 1.600092,2.50113 2.591826,2.65745 0.940737,0.14828 0.951555,0.16954 0.944937,1.8567 -0.0037,0.93868 -0.09077,1.79077 -0.193527,1.89352 -0.317082,0.31709 -15.273681,5.84406 -17.493747,6.46454 -2.530695,0.7073 -8.488791,0.73979 -19.007397,0.10366 z M 130.8,120.32636 c 0,-0.31261 0.68298,-1.20439 7.47161,-9.75565 2.70688,-3.40972 5.15521,-6.32451 5.44073,-6.47732 0.38732,-0.20728 0.8325,-0.0508 1.75339,0.61628 0.67885,0.49175 1.23427,1.06305 1.23427,1.26956 0,0.2065 -3.20728,3.58065 -7.1273,7.49811 -5.8365,5.8327 -7.27629,7.12266 -7.95,7.12266 -0.45248,0 -0.8227,-0.12314 -0.8227,-0.27364 z M 27,100.06343 c 1.065839,-1.160024 4.083924,-2.539373 16.35,-7.472402 5.94,-2.388882 15.1875,-6.115029 20.55,-8.28033 25.309233,-10.219509 28.579056,-11.39505 30.115191,-10.826796 0.604434,0.223593 0.604749,0.230706 0.0237,0.5349 -0.323886,0.169563 -4.031385,1.688358 -8.238885,3.375099 -4.2075,1.686741 -10.755,4.3221 -14.55,5.856351 -38.221788,15.4524 -42.610753,17.196668 -43.823241,17.416298 L 26.25,100.87969 27,100.06343 Z m 94.99008,-11.00177 c -0.82405,-0.434661 -1.06694,-0.704796 -0.83884,-0.932904 0.22811,-0.228105 0.62913,-0.08612 1.38492,0.49035 1.63656,1.248258 1.37826,1.457586 -0.54608,0.442554 z"
       id="path4154"
       inkscape:connector-curvature="0" />
    <path
       style="fill:#efefef"
       d="m 82.31877,162.00067 c -1.619583,-0.23742 -1.809381,-0.3084 -11.66877,-4.36338 -3.465,-1.42509 -6.705,-2.7324 -7.2,-2.90513 -0.495,-0.17272 -1.016076,-0.41845 -1.157943,-0.54605 -0.36657,-0.3297 0.74106,-2.08611 1.315548,-2.08611 0.484164,0 17.94402,7.0611 21.659811,8.75964 1.10958,0.50721 1.945365,1.03878 1.857297,1.18128 -0.186669,0.30203 -2.609508,0.28174 -4.805943,-0.0402 z M 53.55,144.13437 c -3.63,-0.20957 -7.305462,-0.46133 -8.167692,-0.55947 -1.631841,-0.18572 -7.155618,-2.02821 -7.693668,-2.56626 -0.453426,-0.45343 3.729099,-0.38121 15.628746,0.26985 5.798529,0.31726 10.725738,0.45838 11.320473,0.32425 0.579198,-0.13063 2.033877,-0.92847 3.232614,-1.77296 1.19874,-0.8445 3.867027,-2.63218 5.929527,-3.97262 2.0625,-1.34044 4.6275,-3.0694 5.7,-3.84212 5.483817,-3.95102 8.136198,-5.77884 8.238021,-5.67702 0.06208,0.0621 -0.753582,1.02294 -1.812576,2.13525 -1.058994,1.11231 -1.924758,2.19212 -1.923921,2.39956 9e-4,0.20744 0.504741,1.15688 1.119783,2.10986 1.113147,1.72477 1.124445,1.73231 2.473473,1.65 1.35009,-0.0824 1.355553,-0.0787 1.443573,0.96731 0.04859,0.5775 -0.08641,1.27879 -0.3,1.55842 -0.435381,0.56999 -15.708279,6.30565 -18.616683,6.99141 -2.249169,0.53031 -7.198275,0.52569 -16.57167,-0.0155 z m 77.55,-24.09623 c 0,-0.14401 0.70875,-1.13899 1.575,-2.21106 0.86625,-1.07207 3.64344,-4.59924 6.17153,-7.83815 4.9657,-6.3619 5.27843,-6.60259 6.66336,-5.1284 l 0.71448,0.76052 -7.33489,7.33948 c -4.03419,4.03671 -7.43717,7.33947 -7.56219,7.33947 -0.12501,0 -0.22729,-0.11783 -0.22729,-0.26186 z M 27.720143,99.932991 C 28.527603,99.040758 31.259019,97.81023 42.018549,93.491427 47.535846,91.276821 53.94,88.694403 56.25,87.752721 c 2.31,-0.941679 8.655,-3.508518 14.1,-5.704086 5.445,-2.195568 11.79,-4.756848 14.1,-5.691738 2.31,-0.934887 4.875,-1.83876 5.7,-2.008602 0.825,-0.169845 2.00625,-0.412065 2.625,-0.538269 0.61875,-0.126204 1.125,-0.129213 1.125,-0.0067 0,0.272694 -0.280221,0.391086 -13.5,5.703702 -5.8575,2.353944 -17.0625,6.87351 -24.9,10.043478 C 32.785248,98.737764 28.318393,100.5 27.745615,100.5 c -0.509159,0 -0.510552,-0.031 -0.02547,-0.567009 z M 122.2057,89.102007 C 121.4127,88.782051 121.01269,88.2 121.5858,88.2 c 0.23166,0 0.66555,0.27 0.9642,0.6 0.59965,0.662604 0.58382,0.676485 -0.3443,0.302007 z"
       id="path4152"
       inkscape:connector-curvature="0" />
    <path
       style="fill:#eeeeee"
       d="M 77.25,159.93277 C 65.238474,155.10245 62.836986,154.11424 62.610639,153.90866 62.280162,153.60853 63.007221,152.1 63.482352,152.1 c 0.528381,0 19.965162,7.96364 22.017648,9.02107 l 1.65,0.85007 -2.4,0.006 c -2.275245,0.006 -2.665104,-0.10033 -7.5,-2.04464 z m -26.1,-16.44561 c -7.219341,-0.39898 -8.006355,-0.49821 -10.571958,-1.33284 -1.524576,-0.49598 -2.862081,-1.0476 -2.972232,-1.22582 -0.222717,-0.36037 4.623645,-0.21951 18.273405,0.5311 4.901913,0.26956 8.478678,0.34054 9.183192,0.18225 0.634689,-0.14261 1.934727,-0.85161 2.888976,-1.57557 0.954246,-0.72395 2.51403,-1.78878 3.466188,-2.36628 1.960602,-1.18914 6.299019,-4.17153 10.414185,-7.15909 1.529967,-1.11074 3.217467,-2.26957 3.75,-2.57518 l 0.968244,-0.55565 -0.789237,0.86996 c -0.434079,0.47848 -1.142829,1.26092 -1.575,1.73877 -0.432171,0.47784 -0.785763,1.009 -0.785763,1.18035 0,0.17134 0.50625,1.10079 1.125,2.06544 1.077138,1.67929 1.16967,1.74751 2.175,1.60368 0.5775,-0.0826 1.32,-0.18804 1.65,-0.23425 0.470262,-0.0659 0.619074,0.11058 0.688215,0.81597 0.04852,0.495 -0.08648,1.1203 -0.3,1.38957 -0.213519,0.26926 -2.278215,1.17148 -4.588215,2.00495 -2.31,0.83346 -5.955,2.18104 -8.1,2.99463 -2.145,0.81359 -4.615395,1.63261 -5.489766,1.82005 -2.049258,0.4393 -9.551568,0.37281 -19.410234,-0.17204 z m 81.82997,-25.60753 c 0.28443,-0.84 10.12816,-13.32151 10.7226,-13.59588 0.56682,-0.26162 2.09743,0.43221 2.09743,0.95078 0,0.12139 -2.92034,3.12203 -6.48965,6.66809 -3.56931,3.54606 -6.41798,6.23571 -6.33038,5.97701 z M 28.2,99.905832 C 29.428792,99.003147 32.947479,97.463241 43.656414,93.141537 50.087886,90.546048 59.3325,86.815431 64.2,84.85128 86.751552,75.751194 92.36202,73.662021 92.87394,74.173941 92.9501,74.250101 91.153374,75.061683 88.88121,75.977454 86.609043,76.893225 72.384954,82.635045 57.272121,88.73706 32.340303,98.80362 26.806335,100.92963 28.2,99.905832 Z"
       id="path4150"
       inkscape:connector-curvature="0" />
    <path
       style="fill:#ededed"
       d="m 81.75,161.41945 c -0.825,-0.30739 -5.01,-2.00367 -9.3,-3.7695 -4.29,-1.76584 -8.23875,-3.35461 -8.775,-3.53061 -1.040823,-0.34161 -1.284186,-1.08927 -0.552276,-1.6967 0.334953,-0.27799 2.437293,0.47043 10.125,3.60442 10.205043,4.16022 12.759528,5.28017 13.025637,5.71074 0.297066,0.48066 -3.002109,0.24847 -4.523361,-0.31835 z m -31.2,-18.28669 c -7.141833,-0.44073 -8.725776,-0.62566 -10.575,-1.23462 -4.33821,-1.4286 -3.698574,-1.44594 15.225,-0.41283 8.311734,0.45376 11.32248,0.4174 11.677395,-0.14104 0.245556,-0.38637 2.655264,-2.1826 4.072605,-3.03578 1.322682,-0.7962 7.791126,-5.32254 9.45,-6.6127 0.5775,-0.44914 1.839234,-1.31939 2.803851,-1.93388 l 1.753851,-1.11726 -1.209357,1.52995 c -0.665148,0.84148 -1.294728,1.79893 -1.399068,2.12768 -0.10434,0.32875 -0.3153,0.59772 -0.468798,0.59772 -0.153498,0 -0.785649,0.48116 -1.404783,1.06925 -0.619134,0.58809 -2.171946,1.83291 -3.450696,2.76627 -2.175666,1.58802 -3.000576,2.5094 -1.8,2.01052 0.28875,-0.11999 1.065,-0.3918 1.725,-0.60402 0.66,-0.21222 2.4825,-0.88292 4.05,-1.49045 2.578338,-0.99931 5.163285,-1.62948 7.2,-1.75526 0.649359,-0.0401 0.74175,0.0693 0.688527,0.81516 -0.03381,0.47381 -0.114837,0.91484 -0.180057,0.98006 -0.115191,0.11519 -6.683538,2.6084 -14.30847,5.43119 l -3.75,1.38827 -5.85,0.0701 c -3.2175,0.0385 -9.63,-0.1632 -14.25,-0.44831 z m 84.78728,-28.21807 c 1.40183,-2.03632 6.66507,-8.88287 7.5642,-9.83969 1.0484,-1.11566 1.40988,-1.19118 2.09228,-0.43714 0.45812,0.50621 0.16743,0.85478 -4.94122,5.925 -2.98538,2.96293 -5.10725,4.92125 -4.71526,4.35183 z M 30.6,98.869197 c 0.7425,-0.386577 5.94,-2.554623 11.55,-4.81788 5.61,-2.263257 14.0475,-5.666022 18.75,-7.561695 4.7025,-1.895676 13.031439,-5.256342 18.508755,-7.468152 5.477316,-2.211807 10.202316,-4.015503 10.5,-4.00821 C 90.850026,75.03633 88.730067,75.973542 77.85,80.344395 72.075,82.664388 61.4775,86.941632 54.3,89.849382 35.408457,97.502727 30.093669,99.601767 29.646725,99.586032 29.428526,99.578349 29.8575,99.255774 30.6,98.869197 Z"
       id="path4148"
       inkscape:connector-curvature="0" />
    <path
       style="fill:#ececec"
       d="m 84,161.69684 c -0.7425,-0.12792 -5.774859,-2.03579 -11.183022,-4.23971 -8.580438,-3.49668 -9.822447,-4.08356 -9.75,-4.60713 0.05482,-0.39619 0.270474,-0.56796 0.634872,-0.50568 0.550974,0.0942 17.086896,6.79596 20.395068,8.26585 0.978921,0.43496 1.663554,0.91108 1.557294,1.08301 -0.104292,0.16875 -0.215406,0.29094 -0.246918,0.27153 C 85.375782,161.9453 84.7425,161.82476 84,161.69684 Z M 50.25,142.81119 c -6.47559,-0.37532 -9.121872,-0.6424 -10.35,-1.04459 -2.520762,-0.82551 -2.572455,-1.15389 -0.15,-0.95289 1.155,0.0958 3.99,0.25754 6.3,0.35933 2.31,0.1018 5.0775,0.23698 6.15,0.3004 1.0725,0.0634 4.871856,0.20336 8.443014,0.31098 6.262017,0.18871 6.504288,0.1746 6.809925,-0.39648 0.1743,-0.32569 1.369944,-1.31388 2.656986,-2.19598 3.50874,-2.40479 9.399897,-6.57137 10.590075,-7.48992 1.711671,-1.32104 2.7,-1.89159 2.7,-1.55867 0,0.32785 -2.862324,2.787 -8.789874,7.55174 -1.946694,1.56481 -3.416925,2.88596 -3.267177,2.93587 0.149745,0.0499 1.708842,-0.45413 3.464658,-1.12011 1.755816,-0.66598 4.576143,-1.73439 6.267393,-2.37426 3.910728,-1.47957 7.489329,-2.49228 7.779957,-2.20165 0.123966,0.12396 0.151794,0.50683 0.06184,0.85081 -0.132942,0.50836 -1.689234,1.19352 -8.315175,3.66075 -4.483392,1.66944 -8.956236,3.24193 -9.939654,3.49441 -2.299341,0.59035 -8.688504,0.54973 -20.41197,-0.12974 z M 137.6773,111.975 c 0.64433,-1.13356 5.60278,-7.3988 6.09207,-7.69763 0.39617,-0.24195 0.64344,-0.19313 1.0424,0.20583 0.49736,0.49736 0.33965,0.70683 -3.21487,4.26991 -3.53502,3.54353 -4.60002,4.41895 -3.9196,3.22189 z M 32.319999,98.362773 c 0.203502,-0.205026 0.445572,-0.297201 0.537939,-0.204834 0.09237,0.09237 -0.07413,0.260115 -0.369999,0.372774 -0.42756,0.162804 -0.462018,0.128346 -0.16794,-0.16794 z M 36.6,96.6 c 0.2475,-0.159948 0.585,-0.290811 0.75,-0.290811 0.165,0 0.0975,0.130863 -0.15,0.290811 -0.2475,0.159948 -0.585,0.290811 -0.75,0.290811 -0.165,0 -0.0975,-0.130863 0.15,-0.290811 z m 4.5,-1.8 c 0.2475,-0.159948 0.585,-0.290811 0.75,-0.290811 0.165,0 0.0975,0.130863 -0.15,0.290811 -0.2475,0.159948 -0.585,0.290811 -0.75,0.290811 -0.165,0 -0.0975,-0.130863 0.15,-0.290811 z m 2.1,-0.9 c 0.2475,-0.159948 0.585,-0.290811 0.75,-0.290811 0.165,0 0.0975,0.130863 -0.15,0.290811 -0.2475,0.159948 -0.585,0.290811 -0.75,0.290811 -0.165,0 -0.0975,-0.130863 0.15,-0.290811 z m 2.1,-0.717903 c 0,-0.06485 0.209511,-0.1983 0.465582,-0.296565 0.266976,-0.102447 0.387396,-0.05215 0.282294,0.117903 C 45.871698,93.288498 45.3,93.42507 45.3,93.182097 Z M 53.7,89.7 c 0.2475,-0.159948 0.585,-0.290811 0.75,-0.290811 0.165,0 0.0975,0.130863 -0.15,0.290811 -0.2475,0.159948 -0.585,0.290811 -0.75,0.290811 -0.165,0 -0.0975,-0.130863 0.15,-0.290811 z m 4.5,-1.8 c 0.2475,-0.159948 0.585,-0.290811 0.75,-0.290811 0.165,0 0.0975,0.130863 -0.15,0.290811 -0.2475,0.159948 -0.585,0.290811 -0.75,0.290811 -0.165,0 -0.0975,-0.130863 0.15,-0.290811 z M 60.3,87 c 0.2475,-0.159948 0.585,-0.290811 0.75,-0.290811 0.165,0 0.0975,0.130863 -0.15,0.290811 -0.2475,0.159948 -0.585,0.290811 -0.75,0.290811 -0.165,0 -0.0975,-0.130863 0.15,-0.290811 z m 1.5,-0.6 c 0.2475,-0.159948 0.585,-0.290811 0.75,-0.290811 0.165,0 0.0975,0.130863 -0.15,0.290811 -0.2475,0.159948 -0.585,0.290811 -0.75,0.290811 -0.165,0 -0.0975,-0.130863 0.15,-0.290811 z m 3,-1.2 c 0.2475,-0.159948 0.585,-0.290811 0.75,-0.290811 0.165,0 0.0975,0.130863 -0.15,0.290811 -0.2475,0.159948 -0.585,0.290811 -0.75,0.290811 -0.165,0 -0.0975,-0.130863 0.15,-0.290811 z m 17.1,-6.9 c 0.2475,-0.159948 0.585,-0.290811 0.75,-0.290811 0.165,0 0.0975,0.130863 -0.15,0.290811 -0.2475,0.159948 -0.585,0.290811 -0.75,0.290811 -0.165,0 -0.0975,-0.130863 0.15,-0.290811 z m 4.5,-1.8 c 0.2475,-0.159948 0.585,-0.290811 0.75,-0.290811 0.165,0 0.0975,0.130863 -0.15,0.290811 -0.2475,0.159948 -0.585,0.290811 -0.75,0.290811 -0.165,0 -0.0975,-0.130863 0.15,-0.290811 z"
       id="path4146"
       inkscape:connector-curvature="0" />
    <path
       style="fill:#ebebeb"
       d="m 73.361553,157.33879 c -5.438646,-2.22513 -10.017471,-4.17471 -10.175166,-4.3324 -0.182289,-0.18229 -0.122457,-0.34975 0.164283,-0.45979 0.248049,-0.0952 2.936874,0.83607 5.975163,2.06946 15.857328,6.43723 16.633047,6.79217 14.809167,6.77618 -0.48675,-0.004 -5.334801,-1.82832 -10.773447,-4.05345 z M 50.25,142.45804 c -6.121968,-0.35949 -10.034754,-0.71714 -10.8,-0.98719 l -1.2,-0.42348 2.4,-0.0233 c 1.32,-0.0128 5.946852,0.17949 10.281894,0.42739 4.335042,0.24791 9.977004,0.50708 12.53769,0.57594 4.336371,0.11662 4.644318,0.0891 4.488483,-0.40194 -0.165753,-0.52225 2.335668,-2.43833 10.341933,-7.92191 l 2.55,-1.74652 -1.51059,1.44651 c -0.830823,0.79557 -3.247752,2.8571 -5.370954,4.58118 -2.123202,1.72407 -3.731217,3.17773 -3.573372,3.23034 0.157845,0.0526 3.315105,-1.05857 7.016133,-2.4693 C 84.148968,136.17747 87.597525,135 88.381602,135 88.61172,135 88.8,135.24232 88.8,135.5385 c 0,0.42913 -1.538577,1.11284 -7.575,3.36619 -11.029182,4.11711 -11.377875,4.20319 -16.83399,4.15618 C 61.893456,143.03936 55.53,142.76808 50.25,142.45804 Z M 139.34674,109.95 c 0.30204,-0.495 1.35445,-1.94625 2.33869,-3.225 1.64777,-2.14081 2.59255,-2.78874 3.03129,-2.07885 0.0837,0.13538 -1.21391,1.58663 -2.88351,3.225 -1.66959,1.63837 -2.7885,2.57385 -2.48647,2.07885 z"
       id="path4144"
       inkscape:connector-curvature="0" />
    <path
       style="fill:#eaeaea"
       d="m 82.05,160.5327 c -1.449534,-0.52729 -15.337455,-6.15239 -17.625,-7.13874 -0.61875,-0.2668 -1.125,-0.59958 -1.125,-0.73952 0,-0.41773 -1.342746,-0.92723 13.35,5.0656 5.709462,2.32876 7.993755,3.39889 7.191753,3.36914 C 83.681289,161.08324 82.875,160.83281 82.05,160.5327 Z m -31.8,-18.3641 c -5.28,-0.30423 -10.005,-0.67784 -10.5,-0.83025 l -0.9,-0.2771 1.09122,-0.0306 c 1.248336,-0.035 22.978458,1.05882 26.320272,1.32491 2.19393,0.1747 2.210139,0.17061 2.040909,-0.51472 -0.183984,-0.7451 0.480993,-1.31273 6.097599,-5.20499 3.222579,-2.23321 2.634153,-1.48175 -1.609497,2.05544 -2.037387,1.69821 -3.128073,2.79142 -2.84028,2.84685 0.256962,0.0495 1.839765,-0.45685 3.517338,-1.1252 1.677573,-0.66834 3.957402,-1.54124 5.066286,-1.93978 C 89.325885,134.59445 88.8,134.75223 88.8,135.39299 c 0,0.3805 -11.117637,4.7024 -16.875015,6.56004 -2.456592,0.79263 -2.928174,0.84446 -7.35,0.80784 C 61.976244,142.73935 55.53,142.47283 50.25,142.1686 Z m 26.85,-7.28187 c 0,-0.0623 0.23625,-0.29854 0.525,-0.525 0.475818,-0.37316 0.486429,-0.36255 0.113268,0.11327 C 77.346357,134.97472 77.1,135.13364 77.1,134.88673 Z m 64.87573,-28.38077 c 1.19511,-1.68259 2.12702,-2.40322 2.55472,-1.97551 0.19916,0.19916 -3.20622,3.76955 -3.59532,3.76955 -0.12851,0 0.33976,-0.80732 1.0406,-1.79404 z"
       id="path4142"
       inkscape:connector-curvature="0" />
    <path
       style="fill:#e9e9e9"
       d="m 63.45,142.5 c 0.833781,-0.35829 1.878567,-0.35829 2.1,0 0.114396,0.1851 -0.367164,0.29192 -1.257294,0.27891 C 63.210531,142.7631 62.99994,142.6934 63.45,142.5 Z m -4.875,-0.21854 c 0.61875,-0.0647 1.63125,-0.0647 2.25,0 0.61875,0.0647 0.1125,0.11768 -1.125,0.11768 -1.2375,0 -1.74375,-0.053 -1.125,-0.11768 z m -5.542071,-0.30151 c 0.705612,-0.0634 1.785612,-0.0625 2.4,0.002 0.614388,0.0645 0.03707,0.11631 -1.282929,0.11522 -1.32,-0.001 -1.822683,-0.0538 -1.117071,-0.1172 z M 47.475,141.68146 c 0.61875,-0.0647 1.63125,-0.0647 2.25,0 0.61875,0.0647 0.1125,0.11768 -1.125,0.11768 -1.2375,0 -1.74375,-0.053 -1.125,-0.11768 z m 21.059682,-0.10625 c -0.107121,-0.17332 -0.147495,-0.34981 -0.08972,-0.3922 0.05777,-0.0424 0.915042,-0.6877 1.905042,-1.43404 1.977441,-1.49075 3.660543,-2.47778 2.85,-1.67134 -1.605168,1.59705 -4.499058,3.7666 -4.665318,3.49758 z m -26.755557,-0.19048 c 0.456018,-0.069 1.131018,-0.0671 1.5,0.004 0.368982,0.0712 -0.0041,0.12762 -0.829125,0.12537 -0.825,-0.002 -1.126893,-0.0605 -0.670875,-0.12947 z m 2.545875,0.0166 c 0.20625,-0.0832 0.54375,-0.0832 0.75,0 0.20625,0.0832 0.0375,0.15131 -0.375,0.15131 -0.4125,0 -0.58125,-0.0681 -0.375,-0.15131 z M 72.9,140.95139 c 2.043516,-0.91765 13.82328,-5.27844 14.85,-5.49736 1.733154,-0.36955 -0.05153,0.4468 -5.347473,2.44604 -6.267582,2.36604 -10.107549,3.70708 -10.533804,3.67874 -0.175296,-0.0116 0.288777,-0.29399 1.031277,-0.62742 z m 70.18769,-35.59366 c 0.37277,-0.54575 0.75713,-0.91291 0.85413,-0.81591 0.097,0.097 -0.208,0.54352 -0.67777,0.99227 l -0.85412,0.81591 0.67776,-0.99227 z"
       id="path4140"
       inkscape:connector-curvature="0" />
  </g>
</svg>
