<svg xmlns="http://www.w3.org/2000/svg" xmlns:svg="http://www.w3.org/2000/svg" id="Layer_1" x="0" y="0" enable-background="new 0 0 16 16" version="1.1" viewBox="0 0 16 16" xml:space="preserve"><metadata id="metadata16"/><style id="style3" type="text/css">.st0{fill:#fff}</style><path id="XMLID_139_" fill="#000" d="M8,0C3.6,0,0,3.6,0,8c0,4.4,3.6,8,8,8c4.4,0,8-3.6,8-8C16,3.6,12.4,0,8,0z M8.7,10.2 c-0.9,1.2-2.6,1.6-4,1.1c-1.4-0.5-2.3-2-2.2-3.4C2.5,6,4.2,4.4,6,4.5c0.9,0,1.7,0.3,2.3,0.9C8,5.7,7.7,6,7.4,6.3 C6.6,5.7,5.5,5.6,4.7,6.2C3.6,7,3.5,8.9,4.6,9.7c1.1,1,3.1,0.5,3.4-1c-0.7,0-1.3,0-2,0c0-0.4,0-0.8,0-1.2c1.1,0,2.2,0,3.3,0 C9.4,8.4,9.3,9.4,8.7,10.2z M13.5,8.5c-0.3,0-0.7,0-1,0c0,0.3,0,0.7,0,1c-0.3,0-0.7,0-1,0c0-0.3,0-0.7,0-1c-0.3,0-0.7,0-1,0 c0-0.3,0-0.7,0-1c0.3,0,0.7,0,1,0c0-0.3,0-0.7,0-1c0.3,0,0.7,0,1,0c0,0.3,0,0.7,0,1c0.3,0,0.7,0,1,0C13.5,7.8,13.5,8.2,13.5,8.5z" class="st0"/></svg>