<?xml version="1.0" encoding="UTF-8" standalone="no"?>
<!-- Generator: Adobe Illustrator 19.0.0, SVG Export Plug-In . SVG Version: 6.00 Build 0)  -->

<svg
   xmlns:dc="http://purl.org/dc/elements/1.1/"
   xmlns:cc="http://creativecommons.org/ns#"
   xmlns:rdf="http://www.w3.org/1999/02/22-rdf-syntax-ns#"
   xmlns:svg="http://www.w3.org/2000/svg"
   xmlns="http://www.w3.org/2000/svg"
   xmlns:sodipodi="http://sodipodi.sourceforge.net/DTD/sodipodi-0.dtd"
   xmlns:inkscape="http://www.inkscape.org/namespaces/inkscape"
   version="1.1"
   id="Layer_1"
   x="0px"
   y="0px"
   viewBox="0 0 16 16"
   style="enable-background:new 0 0 16 16;"
   xml:space="preserve"
   inkscape:version="0.91 r13725"
   sodipodi:docname="g+.svg"><metadata
     id="metadata16"><rdf:RDF><cc:Work
         rdf:about=""><dc:format>image/svg+xml</dc:format><dc:type
           rdf:resource="http://purl.org/dc/dcmitype/StillImage" /></cc:Work></rdf:RDF></metadata><defs
     id="defs14" /><sodipodi:namedview
     pagecolor="#ffffff"
     bordercolor="#666666"
     borderopacity="1"
     objecttolerance="10"
     gridtolerance="10"
     guidetolerance="10"
     inkscape:pageopacity="0"
     inkscape:pageshadow="2"
     inkscape:window-width="753"
     inkscape:window-height="480"
     id="namedview12"
     showgrid="false"
     inkscape:zoom="14.75"
     inkscape:cx="19.186441"
     inkscape:cy="8"
     inkscape:window-x="0"
     inkscape:window-y="0"
     inkscape:window-maximized="0"
     inkscape:current-layer="Layer_1" /><style
     type="text/css"
     id="style3">
	.st0{fill:white;}
</style><path
     id="XMLID_139_"
     class="st0"
     d="M8,0C3.6,0,0,3.6,0,8c0,4.4,3.6,8,8,8c4.4,0,8-3.6,8-8C16,3.6,12.4,0,8,0z M8.7,10.2  c-0.9,1.2-2.6,1.6-4,1.1c-1.4-0.5-2.3-2-2.2-3.4C2.5,6,4.2,4.4,6,4.5c0.9,0,1.7,0.3,2.3,0.9C8,5.7,7.7,6,7.4,6.3  C6.6,5.7,5.5,5.6,4.7,6.2C3.6,7,3.5,8.9,4.6,9.7c1.1,1,3.1,0.5,3.4-1c-0.7,0-1.3,0-2,0c0-0.4,0-0.8,0-1.2c1.1,0,2.2,0,3.3,0  C9.4,8.4,9.3,9.4,8.7,10.2z M13.5,8.5c-0.3,0-0.7,0-1,0c0,0.3,0,0.7,0,1c-0.3,0-0.7,0-1,0c0-0.3,0-0.7,0-1c-0.3,0-0.7,0-1,0  c0-0.3,0-0.7,0-1c0.3,0,0.7,0,1,0c0-0.3,0-0.7,0-1c0.3,0,0.7,0,1,0c0,0.3,0,0.7,0,1c0.3,0,0.7,0,1,0C13.5,7.8,13.5,8.2,13.5,8.5z"
     style="fill:#000000" /><g
     id="XMLID_1_" /><g
     id="XMLID_2_" /><g
     id="XMLID_3_" /><g
     id="XMLID_4_" /><g
     id="XMLID_5_" /><g
     id="XMLID_6_" /></svg>