<svg xmlns="http://www.w3.org/2000/svg" xmlns:svg="http://www.w3.org/2000/svg" id="Layer_1" x="0" y="0" enable-background="new 0 0 16 16" version="1.1" viewBox="0 0 16 16" xml:space="preserve"><metadata id="metadata16"/><style id="style3" type="text/css"/><path id="path3382" fill="#fff" d="M 8,0 C 3.6,0 0,3.6 0,8 c 0,4.4 3.6,8 8,8 4.4,0 8,-3.6 8,-8 C 16,3.6 12.4,0 8,0 Z"/><g id="g16" fill="#404552" clip-path="none" transform="matrix(0.00779896,0,0,-0.00779896,2.6701642,12.409835)"><path id="path22" fill="#404552" d="m 1366.9,989.39 c -50.27,-22.309 -104.33,-37.387 -161.05,-44.18 57.89,34.723 102.34,89.679 123.28,155.15 -54.18,-32.15 -114.18,-55.47 -178.09,-68.04 -51.13,54.49 -124.02,88.55 -204.68,88.55 -154.89,0 -280.43,-125.55 -280.43,-280.43 0,-21.988 2.457,-43.398 7.258,-63.91 -233.08,11.68 -439.72,123.36 -578.04,293.01 -24.141,-41.4 -37.969,-89.567 -37.969,-140.97 0,-97.308 49.489,-183.13 124.76,-233.44 -45.969,1.437 -89.218,14.058 -127.03,35.078 -0.043,-1.18 -0.043,-2.348 -0.043,-3.52 0,-135.9 96.68,-249.22 224.96,-275 -23.512,-6.41 -48.281,-9.8 -73.86,-9.8 -18.089,0 -35.628,1.711 -52.781,5 35.711,-111.41 139.26,-192.5 262,-194.77 -96.058,-75.23 -216.96,-120.04 -348.36,-120.04 -22.621,0 -44.961,1.332 -66.918,3.91 124.16,-79.568 271.55,-125.98 429.94,-125.98 515.82,0 797.86,427.31 797.86,797.93 0,12.153 -0.28,24.223 -0.79,36.25 54.77,39.571 102.31,88.95 139.93,145.2"/></g></svg>