<svg xmlns="http://www.w3.org/2000/svg" xmlns:osb="http://www.openswatchbook.org/uri/2009/osb" xmlns:svg="http://www.w3.org/2000/svg" id="svg7384" width="16" height="16" enable-background="new" version="1.1"><metadata id="metadata90"/><title id="title8473">Moka Symbolic Icon Theme</title><defs id="defs7386"><linearGradient id="linearGradient5606" osb:paint="solid"><stop id="stop5608" offset="0" stop-color="#000" stop-opacity="1"/></linearGradient><filter id="filter7554" color-interpolation-filters="sRGB"><feBlend id="feBlend7556" in2="BackgroundImage" mode="darken"/></filter></defs><g id="layer9" display="inline" transform="translate(-519.00021,368.01034)"><path id="path7282" fill="#bebebe" fill-opacity="1" stroke="none" stroke-width="2" d="m 521.0002,-367.01036 0,1 0,7 c 0,2.07164 1.57494,3.52182 2.9375,4.46875 1.36256,0.94693 2.6875,1.46875 2.6875,1.46875 l 0.375,0.125 0.375,-0.125 c 0,0 1.32934,-0.54445 2.6875,-1.5 1.35816,-0.95555 2.9375,-2.39317 2.9375,-4.4375 l 0,-7 0,-1 -1,0 -5.25,0 -4.75,0 -1,0 z m 1,1 4.75,0 5.25,0 0,7 c 0,2.96398 -5,5 -5,5 0,0 -5,-1.94932 -5,-5 l 0,-7 z" baseline-shift="baseline" color="#bebebe" direction="ltr" display="inline" enable-background="accumulate" font-family="Sans" font-size="medium" font-stretch="normal" font-style="normal" font-variant="normal" font-weight="normal" letter-spacing="normal" overflow="visible" text-anchor="start" text-decoration="none" visibility="visible" word-spacing="normal" writing-mode="lr-tb" style="line-height:normal;-inkscape-font-specification:Sans;text-indent:0;text-align:start;text-decoration-line:none;text-transform:none;block-progression:tb;marker:none"/><path font-stretch="normal" style="line-height:normal;-inkscape-font-specification:Sans;text-indent:0;text-align:start;text-decoration-line:none;text-transform:none;block-progression:tb;marker:none" id="path7292" fill="#bebebe" fill-opacity="1" stroke="none" stroke-width="2" d="m 523.0002,-365.01036 0,6 c 0,0.97901 0.92512,2.0221 2.0625,2.8125 0.94964,0.65993 1.64577,0.90854 1.9375,1.03125 0.29177,-0.12746 0.98307,-0.39096 1.9375,-1.0625 1.14191,-0.80345 2.0625,-1.86157 2.0625,-2.78125 l 0,-6 -4.25,0 -3.75,0 z" baseline-shift="baseline" color="#bebebe" direction="ltr" display="inline" enable-background="accumulate" font-family="Sans" font-size="medium" font-style="normal" font-variant="normal" font-weight="normal" letter-spacing="normal" opacity=".35" overflow="visible" text-anchor="start" text-decoration="none" visibility="visible" word-spacing="normal" writing-mode="lr-tb"/></g></svg>